<svg width="94" height="87" viewBox="0 0 94 87" fill="none" xmlns="http://www.w3.org/2000/svg">
<mask id="mask0_1301_18" style="mask-type:luminance" maskUnits="userSpaceOnUse" x="22" y="0" width="51" height="64">
<path d="M22.1771 0H72.103V63.2627H22.1771V0Z" fill="white"/>
</mask>
<g mask="url(#mask0_1301_18)">
<mask id="mask1_1301_18" style="mask-type:luminance" maskUnits="userSpaceOnUse" x="22" y="0" width="50" height="64">
<path d="M68.0728 18.1005C66.7894 21.1272 65.2638 23.5505 63.4962 25.3656C61.7286 27.1819 59.5377 28.559 56.9635 29.5054C54.3821 30.4458 51.1972 31.0869 47.4114 31.4153V35.3119C49.5926 35.835 51.151 36.5235 52.0962 37.3702C53.0171 38.1819 53.6423 39.2765 53.8736 40.4821C54.1169 41.7034 54.2264 43.5805 54.2264 46.0756V46.2094H40.0296V28.3059C40.0296 25.7975 40.1488 23.935 40.3763 22.7136C40.6098 21.4922 41.2035 20.4508 42.1585 19.6005C43.1134 18.755 44.6633 18.0653 46.8396 17.5434V13.6469C43.0526 13.3184 39.869 12.6773 37.2924 11.7369C34.7134 10.7905 32.5212 9.41336 30.7597 7.5971C28.9909 5.78205 27.4508 3.35874 26.1685 0.335693H22.272V63.2103H71.9827V18.1005H68.0728Z" fill="white"/>
</mask>
<g mask="url(#mask1_1301_18)">
<mask id="mask2_1301_18" style="mask-type:luminance" maskUnits="userSpaceOnUse" x="21" y="-1" width="52" height="66">
<path d="M21.8973 -0.361328H72.9912V64.1142H21.8973V-0.361328Z" fill="white"/>
</mask>
<g mask="url(#mask2_1301_18)">
<mask id="mask3_1301_18" style="mask-type:luminance" maskUnits="userSpaceOnUse" x="22" y="0" width="51" height="64">
<path d="M22.1771 0.209229H72.0301V63.2383H22.1771V0.209229Z" fill="white"/>
</mask>
<g mask="url(#mask3_1301_18)">
<mask id="mask4_1301_18" style="mask-type:luminance" maskUnits="userSpaceOnUse" x="22" y="0" width="50" height="64">
<path d="M68.0727 18.1005C66.7893 21.1272 65.2638 23.5505 63.4962 25.3656C61.7286 27.1819 59.5376 28.559 56.9635 29.5054C54.382 30.4458 51.1972 31.0869 47.4114 31.4153V35.3119C49.5926 35.835 51.1509 36.5235 52.0962 37.3702C53.0171 38.1819 53.6423 39.2765 53.8735 40.4821C54.1168 41.7035 54.2263 43.5805 54.2263 46.0756V46.2094H40.0295V28.3059C40.0295 25.7975 40.1487 23.935 40.3762 22.7136C40.6098 21.4922 41.2035 20.4509 42.1584 19.6005C43.1134 18.755 44.6632 18.0653 46.8396 17.5434V13.6469C43.0526 13.3184 39.8689 12.6773 37.2923 11.7369C34.7133 10.7905 32.5212 9.41337 30.7596 7.5971C28.9908 5.78327 27.4507 3.35997 26.1685 0.336914H22.2732V63.2115H71.9838V18.1005H68.0727Z" fill="white"/>
</mask>
<g mask="url(#mask4_1301_18)">
<path d="M-103.69 -81.4788H203.749V170.779H-103.69V-81.4788Z" fill="#8B171A"/>
</g>
</g>
</g>
</g>
</g>
<mask id="mask5_1301_18" style="mask-type:luminance" maskUnits="userSpaceOnUse" x="0" y="69" width="77" height="18">
<path d="M0 69.7405H76.294V86.0114H0V69.7405Z" fill="white"/>
</mask>
<g mask="url(#mask5_1301_18)">
<mask id="mask6_1301_18" style="mask-type:luminance" maskUnits="userSpaceOnUse" x="0" y="69" width="77" height="17">
<path d="M73.7466 77.3717H71.9328C71.3051 77.3717 70.8063 77.1916 70.4693 76.8401C70.1311 76.4873 69.9511 76.0031 69.9511 75.3997C69.9511 74.8304 70.1311 74.3924 70.4839 74.0555C70.8355 73.7185 71.3051 73.5616 71.8999 73.5616C72.4887 73.5616 72.9255 73.727 73.2624 74.0701C73.6055 74.407 73.7612 74.8681 73.7612 75.4472L73.7466 77.3717ZM73.7466 81.5346C73.7466 82.1149 73.5799 82.5906 73.2284 82.9275C72.8768 83.2645 72.4303 83.436 71.8464 83.436C71.2564 83.436 70.7953 83.2657 70.4584 82.9275C70.1165 82.5893 69.9499 82.138 69.9499 81.5735C69.9499 80.9653 70.1165 80.4848 70.4681 80.1429C70.8197 79.8047 71.3038 79.6247 71.9316 79.6247H73.7466V81.5346ZM74.7162 71.1857C74.4644 71.4509 74.1833 71.5896 73.8561 71.5896C73.6992 71.5896 73.5033 71.5506 73.2624 71.4655C72.789 71.3166 72.2952 71.2427 71.799 71.2465C70.9291 71.2465 70.1786 71.4168 69.5606 71.7453C68.9601 72.0578 68.4669 72.5429 68.1445 73.1382C67.8161 73.727 67.6591 74.4155 67.6591 75.2063C67.6591 75.9703 67.9256 76.6685 68.3161 77.1916H8.48763V75.2197C8.48763 74.407 8.3161 73.6796 7.96939 73.0616C7.62783 72.4478 7.11399 71.9475 6.49132 71.6224C5.85022 71.2854 5.12274 71.1139 4.27726 71.1139C3.43056 71.1139 2.6897 71.2842 2.04859 71.6224C1.42186 71.9505 0.900941 72.4495 0.546192 73.0616C0.184885 73.6796 0.0279541 74.407 0.0279541 75.2197V83.3497H48.499C49.0926 83.3497 49.5306 83.4117 49.8201 83.5309C50.1096 83.655 50.3286 83.8825 50.5001 84.211C50.6656 84.5394 50.7994 85.071 50.8992 85.7839H51.6497C51.7215 84.8995 51.8541 84.1964 52.0488 83.6879C52.2385 83.1794 52.505 82.7706 52.8565 82.4665C53.2093 82.1672 53.7166 81.9008 54.3723 81.6818V80.941H2.5571V75.424C2.5571 74.8681 2.71281 74.4301 3.01694 74.1029C3.32107 73.7793 3.74442 73.609 4.27726 73.609C4.80888 73.609 5.20789 73.7793 5.51202 74.1029C5.81129 74.4314 5.96822 74.8778 5.96822 75.424V79.6332H68.2905L68.181 79.7816C67.8307 80.3607 67.6494 81.065 67.6494 81.8619C67.6494 83.037 68.0253 83.9677 68.7613 84.6574C69.4985 85.346 70.5386 85.6975 71.8744 85.6975C73.215 85.6975 74.2551 85.346 74.996 84.6574C75.7332 83.9677 76.0945 83.0224 76.0945 81.8388V69.8074H75.3098C75.1639 70.4631 74.9729 70.9193 74.7162 71.1857Z" fill="white"/>
</mask>
<g mask="url(#mask6_1301_18)">
<mask id="mask7_1301_18" style="mask-type:luminance" maskUnits="userSpaceOnUse" x="0" y="68" width="77" height="19">
<path d="M0 68.98H76.6407V86.0113H0V68.98Z" fill="white"/>
</mask>
<g mask="url(#mask7_1301_18)">
<mask id="mask8_1301_18" style="mask-type:luminance" maskUnits="userSpaceOnUse" x="0" y="69" width="77" height="17">
<path d="M0 69.7402H76.0994V85.8968H0V69.7402Z" fill="white"/>
</mask>
<g mask="url(#mask8_1301_18)">
<mask id="mask9_1301_18" style="mask-type:luminance" maskUnits="userSpaceOnUse" x="0" y="69" width="77" height="17">
<path d="M73.7466 77.3714H71.9328C71.3051 77.3714 70.8063 77.1914 70.4693 76.8398C70.1311 76.487 69.9511 76.0029 69.9511 75.3995C69.9511 74.8301 70.1311 74.3922 70.4839 74.0552C70.8355 73.7182 71.3051 73.5613 71.8999 73.5613C72.4887 73.5613 72.9255 73.7268 73.2624 74.0698C73.6055 74.4068 73.7612 74.8679 73.7612 75.4469L73.7466 77.3714ZM73.7466 81.5344C73.7466 82.1147 73.58 82.5891 73.2284 82.9273C72.8768 83.2643 72.4303 83.4358 71.8464 83.4358C71.2564 83.4358 70.7953 83.2655 70.4584 82.9273C70.1165 82.5903 69.9499 82.1378 69.9499 81.5733C69.9499 80.965 70.1165 80.4845 70.4681 80.1427C70.8197 79.8045 71.3038 79.6244 71.9316 79.6244H73.7466V81.5344ZM74.7162 71.1842C74.4644 71.4519 74.1833 71.5893 73.8561 71.5893C73.6992 71.5893 73.5033 71.5504 73.2624 71.4652C72.789 71.3164 72.2952 71.2425 71.799 71.2463C70.9292 71.2463 70.1773 71.4166 69.5606 71.745C68.9601 72.0576 68.4669 72.5427 68.1445 73.138C67.8161 73.7268 67.6592 74.4153 67.6592 75.206C67.6592 75.97 67.9256 76.6683 68.3161 77.1914H8.48642V75.2194C8.48642 74.4068 8.31489 73.6793 7.96818 73.0613C7.62662 72.4475 7.11278 71.9472 6.49011 71.6222C5.849 71.2852 5.12152 71.1137 4.27604 71.1137C3.42934 71.1137 2.68848 71.284 2.04738 71.6222C1.4211 71.9505 0.900613 72.4494 0.546191 73.0613C0.184885 73.6793 0.0279541 74.4068 0.0279541 75.2206V83.3519H48.499C49.0926 83.3519 49.5306 83.4127 49.8201 83.5319C50.1096 83.6548 50.3286 83.8835 50.5001 84.2119C50.6656 84.5404 50.7994 85.072 50.8992 85.7849H51.6498C51.7215 84.9005 51.8541 84.1973 52.0488 83.6888C52.2385 83.1803 52.505 82.7716 52.8565 82.4674C53.2093 82.1682 53.7166 81.9018 54.3723 81.6828V80.9419H2.5571V75.4238C2.5571 74.8679 2.71281 74.4299 3.01694 74.1027C3.32107 73.7791 3.74442 73.6088 4.27726 73.6088C4.80888 73.6088 5.2079 73.7791 5.51203 74.1027C5.81129 74.4311 5.96822 74.8776 5.96822 75.4238V79.633H68.2905L68.181 79.7814C67.8307 80.3604 67.6494 81.0648 67.6494 81.8616C67.6494 83.0368 68.0253 83.9674 68.7613 84.6572C69.4985 85.3457 70.5387 85.6973 71.8744 85.6973C73.215 85.6973 74.2551 85.3457 74.996 84.6572C75.7332 83.9674 76.0945 83.0222 76.0945 81.8385V69.8071H75.3098C75.1639 70.4628 74.9729 70.919 74.7162 71.1842Z" fill="white"/>
</mask>
<g mask="url(#mask9_1301_18)">
<path d="M-103.69 -81.4792H203.749V170.778H-103.69V-81.4792Z" fill="#8B171A"/>
</g>
</g>
</g>
</g>
</g>
<mask id="mask10_1301_18" style="mask-type:luminance" maskUnits="userSpaceOnUse" x="77" y="64" width="17" height="16">
<path d="M77.8573 64.7832H93.0589V79.6491H77.8573V64.7832Z" fill="white"/>
</mask>
<g mask="url(#mask10_1301_18)">
<mask id="mask11_1301_18" style="mask-type:luminance" maskUnits="userSpaceOnUse" x="78" y="64" width="15" height="16">
<path d="M92.1465 69.54C91.9372 70.1969 91.672 70.6908 91.3484 71.0521C91.02 71.4171 90.5978 71.6701 90.0747 71.855C89.5565 72.0363 88.8387 72.1689 87.9458 72.2407V73.001C88.6587 73.1008 89.1818 73.2334 89.5188 73.4049C89.8557 73.5703 90.0893 73.7893 90.1988 74.0788C90.3083 74.3696 90.3643 74.8063 90.3643 75.3866V77.2162H80.6078V70.7529C80.6078 70.1726 80.671 69.7359 80.7793 69.4463C80.8888 69.1568 81.1175 68.9378 81.4593 68.7663C81.7963 68.596 82.3194 68.4622 83.0323 68.3673V67.6167C82.1345 67.5449 81.4216 67.4123 80.9034 67.2323C80.4198 67.0723 79.9826 66.7967 79.6297 66.4294C79.3012 66.0814 79.036 65.5729 78.8317 64.9172H78.0811V79.6347H92.8837V69.5558L92.1465 69.54Z" fill="white"/>
</mask>
<g mask="url(#mask11_1301_18)">
<mask id="mask12_1301_18" style="mask-type:luminance" maskUnits="userSpaceOnUse" x="77" y="64" width="17" height="16">
<path d="M77.8573 64.1143H93.6721V79.929H77.8573V64.1143Z" fill="white"/>
</mask>
<g mask="url(#mask12_1301_18)">
<mask id="mask13_1301_18" style="mask-type:luminance" maskUnits="userSpaceOnUse" x="77" y="64" width="16" height="16">
<path d="M77.8573 64.7837H92.9446V79.6496H77.8573V64.7837Z" fill="white"/>
</mask>
<g mask="url(#mask13_1301_18)">
<mask id="mask14_1301_18" style="mask-type:luminance" maskUnits="userSpaceOnUse" x="78" y="64" width="15" height="16">
<path d="M92.1465 69.5403C91.9372 70.1972 91.672 70.6911 91.3484 71.0524C91.02 71.4173 90.5978 71.6704 90.0747 71.8553C89.5565 72.0366 88.8387 72.1692 87.9458 72.2409V73.0013C88.6587 73.101 89.1818 73.2336 89.5188 73.4051C89.8557 73.5706 90.0893 73.7896 90.1988 74.0791C90.3083 74.3698 90.3643 74.8066 90.3643 75.3868V77.2165H80.6078V70.7531C80.6078 70.1728 80.6698 69.7361 80.7793 69.4466C80.8888 69.1571 81.1175 68.9381 81.4593 68.7665C81.7963 68.5962 82.3194 68.4624 83.0323 68.3675V67.6182C82.1345 67.5464 81.4216 67.4138 80.9034 67.2325C80.4198 67.0725 79.9826 66.7969 79.6297 66.4296C79.3012 66.0817 79.036 65.5744 78.8316 64.9175H78.0811V79.6349H92.8837V69.5561L92.1465 69.5403Z" fill="white"/>
</mask>
<g mask="url(#mask14_1301_18)">
<path d="M-103.69 -81.4785H203.749V170.779H-103.69V-81.4785Z" fill="#8B171A"/>
</g>
</g>
</g>
</g>
</g>
</svg>
