<svg width="142" height="71" viewBox="0 0 142 71" fill="none" xmlns="http://www.w3.org/2000/svg">
<mask id="mask0_1301_693" style="mask-type:luminance" maskUnits="userSpaceOnUse" x="46" y="15" width="19" height="15">
<path d="M46.6102 15.6384H64.6527V29.7707H46.6102V15.6384Z" fill="white"/>
</mask>
<g mask="url(#mask0_1301_693)">
<mask id="mask1_1301_693" style="mask-type:luminance" maskUnits="userSpaceOnUse" x="46" y="15" width="19" height="15">
<path d="M64.4354 16.0436C58.1711 14.654 47.7337 21.3036 46.6519 29.3401C54.5358 31.1955 63.6618 22.7681 64.4354 16.0436Z" fill="white"/>
</mask>
<g mask="url(#mask1_1301_693)">
<mask id="mask2_1301_693" style="mask-type:luminance" maskUnits="userSpaceOnUse" x="46" y="15" width="19" height="16">
<path d="M46.1039 15.3499H64.6905V30.091H46.1039V15.3499Z" fill="white"/>
</mask>
<g mask="url(#mask2_1301_693)">
<mask id="mask3_1301_693" style="mask-type:luminance" maskUnits="userSpaceOnUse" x="46" y="15" width="19" height="15">
<path d="M46.6102 15.6384H64.5476V29.7707H46.6102V15.6384Z" fill="white"/>
</mask>
<g mask="url(#mask3_1301_693)">
<mask id="mask4_1301_693" style="mask-type:luminance" maskUnits="userSpaceOnUse" x="46" y="15" width="19" height="15">
<path d="M64.4354 16.0436C58.1711 14.654 47.7337 21.3036 46.6519 29.3401C54.5358 31.1955 63.6618 22.7681 64.4354 16.0436Z" fill="white"/>
</mask>
<g mask="url(#mask4_1301_693)">
<path d="M-82.2042 -115.522H231.774V198.457H-82.2042V-115.522Z" fill="#6C773D"/>
</g>
</g>
</g>
</g>
</g>
<mask id="mask5_1301_693" style="mask-type:luminance" maskUnits="userSpaceOnUse" x="78" y="25" width="11" height="15">
<path d="M78.7907 25.2617H88.7102V39.6952H78.7907V25.2617Z" fill="white"/>
</mask>
<g mask="url(#mask5_1301_693)">
<mask id="mask6_1301_693" style="mask-type:luminance" maskUnits="userSpaceOnUse" x="78" y="25" width="11" height="15">
<path d="M88.482 26.9392L82.7612 25.3145L78.8964 37.7598L84.5391 39.4621L88.482 26.9392Z" fill="white"/>
</mask>
<g mask="url(#mask6_1301_693)">
<mask id="mask7_1301_693" style="mask-type:luminance" maskUnits="userSpaceOnUse" x="78" y="24" width="12" height="16">
<path d="M78.7907 24.9636H89.0454V39.7048H78.7907V24.9636Z" fill="white"/>
</mask>
<g mask="url(#mask7_1301_693)">
<mask id="mask8_1301_693" style="mask-type:luminance" maskUnits="userSpaceOnUse" x="78" y="25" width="11" height="15">
<path d="M78.8286 25.2617H88.5019V39.5222H78.8292L78.8286 25.2617Z" fill="white"/>
</mask>
<g mask="url(#mask8_1301_693)">
<mask id="mask9_1301_693" style="mask-type:luminance" maskUnits="userSpaceOnUse" x="78" y="25" width="11" height="15">
<path d="M88.4821 26.9392L82.7612 25.3145L78.8965 37.7598L84.5391 39.4621L88.4821 26.9392Z" fill="white"/>
</mask>
<g mask="url(#mask9_1301_693)">
<path d="M-82.2042 -115.522H231.774V198.457H-82.2042V-115.522Z" fill="#6C773D"/>
</g>
</g>
</g>
</g>
</g>
<mask id="mask10_1301_693" style="mask-type:luminance" maskUnits="userSpaceOnUse" x="21" y="0" width="18" height="23">
<path d="M21.0504 0H38.1898V22.5552H21.0504V0Z" fill="white"/>
</mask>
<g mask="url(#mask10_1301_693)">
<mask id="mask11_1301_693" style="mask-type:luminance" maskUnits="userSpaceOnUse" x="21" y="0" width="18" height="23">
<path d="M38.0725 22.538C38.9237 13.3369 30.0354 2.50924 21.1407 0.193604C20.1364 9.00367 29.0317 20.9132 38.0725 22.538Z" fill="white"/>
</mask>
<g mask="url(#mask11_1301_693)">
<mask id="mask12_1301_693" style="mask-type:luminance" maskUnits="userSpaceOnUse" x="20" y="-1" width="19" height="25">
<path d="M20.4671 -0.0319824H38.4128V23.0411H20.4671V-0.0319824Z" fill="white"/>
</mask>
<g mask="url(#mask12_1301_693)">
<mask id="mask13_1301_693" style="mask-type:luminance" maskUnits="userSpaceOnUse" x="21" y="0" width="18" height="23">
<path d="M21.0504 0.060791H38.1898V22.5551H21.0504V0.060791Z" fill="white"/>
</mask>
<g mask="url(#mask13_1301_693)">
<mask id="mask14_1301_693" style="mask-type:luminance" maskUnits="userSpaceOnUse" x="21" y="0" width="18" height="23">
<path d="M38.0725 22.538C38.9237 13.3369 30.0354 2.50924 21.1401 0.193604C20.1364 9.00367 29.0317 20.9132 38.0725 22.538Z" fill="white"/>
</mask>
<g mask="url(#mask14_1301_693)">
<path d="M-82.2042 -115.522H231.774V198.457H-82.2042V-115.522Z" fill="#6C773D"/>
</g>
</g>
</g>
</g>
</g>
<mask id="mask15_1301_693" style="mask-type:luminance" maskUnits="userSpaceOnUse" x="0" y="21" width="38" height="10">
<path d="M0 21.051H37.5892V30.0713H0V21.051Z" fill="white"/>
</mask>
<g mask="url(#mask15_1301_693)">
<mask id="mask16_1301_693" style="mask-type:luminance" maskUnits="userSpaceOnUse" x="0" y="21" width="38" height="10">
<path d="M0.192932 26.3257C8.92545 32.585 29.6451 30.2661 37.3739 24.6235C30.2661 19.6762 9.5465 19.6762 0.192932 26.3257Z" fill="white"/>
</mask>
<g mask="url(#mask16_1301_693)">
<mask id="mask17_1301_693" style="mask-type:luminance" maskUnits="userSpaceOnUse" x="-1" y="20" width="39" height="11">
<path d="M-0.0422974 20.4773H37.7719V30.0911H-0.0422974V20.4773Z" fill="white"/>
</mask>
<g mask="url(#mask17_1301_693)">
<mask id="mask18_1301_693" style="mask-type:luminance" maskUnits="userSpaceOnUse" x="0" y="21" width="38" height="10">
<path d="M0.0576782 21.051H37.5239V30.0713H0.0576782V21.051Z" fill="white"/>
</mask>
<g mask="url(#mask18_1301_693)">
<mask id="mask19_1301_693" style="mask-type:luminance" maskUnits="userSpaceOnUse" x="0" y="21" width="38" height="10">
<path d="M0.192932 26.3257C8.92545 32.585 29.6451 30.2661 37.3739 24.6235C30.2661 19.6762 9.54586 19.6762 0.192932 26.3257Z" fill="white"/>
</mask>
<g mask="url(#mask19_1301_693)">
<path d="M-82.2042 -115.522H231.774V198.457H-82.2042V-115.522Z" fill="#6C773D"/>
</g>
</g>
</g>
</g>
</g>
<mask id="mask20_1301_693" style="mask-type:luminance" maskUnits="userSpaceOnUse" x="15" y="5" width="127" height="66">
<path d="M15.3398 5.11255H141.934V70.9669H15.3398V5.11255Z" fill="white"/>
</mask>
<g mask="url(#mask20_1301_693)">
<mask id="mask21_1301_693" style="mask-type:luminance" maskUnits="userSpaceOnUse" x="15" y="5" width="127" height="66">
<path d="M135.87 43.0197C133.785 50.5185 131.384 55.6952 129.145 58.9453C126.208 63.2785 123.347 64.2828 121.722 64.2828C120.328 64.2828 119.481 63.3535 119.481 61.0379C119.481 55.0869 125.202 49.5968 132.778 48.5925L131.468 42.7967C127.245 43.6529 123.552 45.3354 120.636 47.6337C113.608 47.774 108.944 45.2732 104.56 38.6929L99.5379 41.8603C104.875 48.9758 104.875 54.6139 101.318 58.562C100.467 59.4913 99.0771 60.5726 97.7606 61.4987L92.8127 42.789L87.0925 44.4144L90.3048 56.5469L80.9115 63.0407C79.5995 63.9701 78.3574 64.2751 77.662 63.8919L83.3745 44.4144L77.6543 42.7896L73.4582 57.3974L65.5993 63.1933C64.4399 64.0451 63.2837 64.2751 62.5101 64.1226L72.4841 31.4255L66.8408 29.6457L62.9132 42.4563C60.0137 44.1465 57.6128 44.9726 54.9767 45.1174C55.4247 38.7211 53.3142 33.038 45.9609 31.3479C41.004 39.0088 43.5626 46.1544 48.6047 49.3212C45.3232 58.903 38.5654 64.6655 31.43 64.6655C25.3188 64.6655 21.6912 60.7251 21.6912 53.302C21.6912 42.2461 30.427 33.9789 40.8611 33.0451L42.6416 32.89L43.7978 30.184C46.8826 23.0762 50.5954 14.2636 43.3325 7.23081L41.1688 5.14526L36.9195 9.63169L39.0755 11.7096C43.0108 15.5128 42.1224 20.144 39.0755 27.3371C24.6151 29.7104 15.4968 40.2682 15.4968 53.6096C15.4968 63.8919 20.8343 70.6164 31.1166 70.6164C42.4557 70.6164 50.9274 61.914 53.9346 50.9934C55.8721 51.0312 58.3108 50.5383 60.6713 49.7442L57.0937 61.416C55.2389 67.4445 57.9454 70.2261 62.1935 70.2261C64.2816 70.2261 66.603 69.53 68.9962 67.6752L71.7925 65.4717C72.1001 68.3661 74.0633 70.2209 77.1102 70.2209C79.1958 70.2209 81.8274 69.3698 84.0648 67.7451L91.8135 62.287L94.0343 70.6818C99.4469 68.1283 102.999 65.3519 105.398 62.8754C108.157 59.9816 110.613 56.3861 109.482 50.8787C111.33 52.0804 113.443 52.7008 115.881 52.9892C114.356 55.5875 113.518 58.5421 113.518 61.7166C113.518 67.0542 116.687 70.2216 121.326 70.2216C124.959 70.2216 128.356 68.3661 131.608 64.5001L130.527 69.5223L136.323 70.7568L141.89 44.7021L135.87 43.0197Z" fill="white"/>
</mask>
<g mask="url(#mask21_1301_693)">
<mask id="mask22_1301_693" style="mask-type:luminance" maskUnits="userSpaceOnUse" x="15" y="5" width="128" height="67">
<path d="M15.3398 5.09521H142.242V71.1098H15.3398V5.09521Z" fill="white"/>
</mask>
<g mask="url(#mask22_1301_693)">
<mask id="mask23_1301_693" style="mask-type:luminance" maskUnits="userSpaceOnUse" x="15" y="5" width="127" height="66">
<path d="M15.4122 5.12744H141.934V70.8472H15.4122V5.12744Z" fill="white"/>
</mask>
<g mask="url(#mask23_1301_693)">
<mask id="mask24_1301_693" style="mask-type:luminance" maskUnits="userSpaceOnUse" x="15" y="5" width="127" height="66">
<path d="M135.87 43.0197C133.785 50.5185 131.384 55.6952 129.145 58.9453C126.208 63.2785 123.347 64.2828 121.722 64.2828C120.328 64.2828 119.481 63.3535 119.481 61.0379C119.481 55.0869 125.202 49.5968 132.778 48.5925L131.468 42.7967C127.245 43.6529 123.552 45.3354 120.636 47.6337C113.608 47.774 108.944 45.2732 104.56 38.6929L99.5379 41.8603C104.875 48.9758 104.875 54.6139 101.318 58.562C100.467 59.4913 99.0771 60.5726 97.7606 61.4987L92.8127 42.789L87.0925 44.4144L90.3048 56.5469L80.9115 63.0407C79.5996 63.9701 78.3575 64.2751 77.6621 63.8919L83.3746 44.4144L77.6544 42.7896L73.4583 57.3974L65.5993 63.1933C64.4399 64.0451 63.2837 64.2751 62.5101 64.1226L72.4841 31.4255L66.8408 29.6457L62.9132 42.4563C60.0137 44.1465 57.6128 44.9726 54.9768 45.1174C55.4248 38.7211 53.3142 33.038 45.9609 31.3479C41.0041 39.0088 43.5626 46.1544 48.6047 49.3212C45.3232 58.903 38.5654 64.6655 31.43 64.6655C25.3189 64.6655 21.6913 60.7251 21.6913 53.302C21.6913 42.2461 30.427 33.9789 40.8612 33.0451L42.6416 32.89L43.7978 30.184C46.8826 23.0762 50.5954 14.2636 43.3325 7.23081L41.1688 5.14526L36.9195 9.63169L39.0756 11.7096C43.0108 15.5128 42.1225 20.144 39.0756 27.3371C24.6158 29.7104 15.4974 40.2689 15.4974 53.6096C15.4974 63.8919 20.835 70.6164 31.1173 70.6164C42.4564 70.6164 50.9281 61.914 53.9353 50.9934C55.8728 51.0312 58.3114 50.5383 60.672 49.7442L57.0943 61.416C55.2395 67.4445 57.9461 70.2261 62.1941 70.2261C64.2822 70.2261 66.6037 69.53 68.9968 67.6752L71.7932 65.4717C72.1008 68.3661 74.0639 70.2209 77.1109 70.2209C79.1964 70.2209 81.828 69.3698 84.0655 67.7451L91.8142 62.287L94.035 70.6818C99.4475 68.1283 103 65.3519 105.398 62.8754C108.158 59.9816 110.614 56.3861 109.482 50.8787C111.33 52.0804 113.443 52.7008 115.881 52.9892C114.357 55.5875 113.518 58.5421 113.518 61.7166C113.518 67.0542 116.688 70.2216 121.327 70.2216C124.959 70.2216 128.357 68.3661 131.609 64.5001L130.528 69.5223L136.323 70.7568L141.891 44.7021L135.87 43.0197Z" fill="white"/>
</mask>
<g mask="url(#mask24_1301_693)">
<path d="M-82.2042 -115.522H231.774V198.457H-82.2042V-115.522Z" fill="#6C773D"/>
</g>
</g>
</g>
</g>
</g>
</svg>
