<svg width="217" height="65" viewBox="0 0 217 65" fill="none" xmlns="http://www.w3.org/2000/svg">
<mask id="mask0_1301_514" style="mask-type:luminance" maskUnits="userSpaceOnUse" x="0" y="31" width="2" height="3">
<path d="M0 31.7959H1.88151V33.6757H0V31.7959Z" fill="white"/>
</mask>
<g mask="url(#mask0_1301_514)">
<mask id="mask1_1301_514" style="mask-type:luminance" maskUnits="userSpaceOnUse" x="-1" y="31" width="4" height="3">
<path d="M-0.405029 31.6633H2.10366V33.7539H-0.405029V31.6633Z" fill="white"/>
</mask>
<g mask="url(#mask1_1301_514)">
<mask id="mask2_1301_514" style="mask-type:luminance" maskUnits="userSpaceOnUse" x="0" y="31" width="2" height="3">
<path d="M0 31.7959H1.88151V33.6762H0V31.7959Z" fill="white"/>
</mask>
<g mask="url(#mask2_1301_514)">
<path d="M0 31.7959H1.87984V33.6762H0V31.7959Z" fill="#8B6339"/>
</g>
</g>
</g>
<mask id="mask3_1301_514" style="mask-type:luminance" maskUnits="userSpaceOnUse" x="8" y="27" width="12" height="11">
<path d="M8.64502 27.6201H19.8881V37.2535H8.64502V27.6201Z" fill="white"/>
</mask>
<g mask="url(#mask3_1301_514)">
<mask id="mask4_1301_514" style="mask-type:luminance" maskUnits="userSpaceOnUse" x="8" y="27" width="12" height="11">
<path d="M14.392 33.3675C13.8485 33.3675 13.3618 33.3675 12.7655 33.3119V28.4333C13.1983 28.4333 13.7941 28.3798 14.1733 28.3798C16.4504 28.3798 18.4017 28.8665 18.4017 30.9813C18.4017 32.9331 16.7752 33.3658 14.392 33.3658M19.8651 37.2154L16.6134 33.9081C18.1847 33.5833 19.1598 32.7144 19.1598 30.9813C19.1598 28.4894 17.2097 27.6201 14.1733 27.6201C12.4925 27.6201 10.3794 27.7832 8.64502 27.9467V37.1602H12.7655V34.0716C13.3618 34.1239 13.8485 34.1239 14.392 34.1239C14.8791 34.1239 15.3118 34.1239 15.7479 34.0716L18.7809 37.2158L19.8651 37.2154Z" fill="white"/>
</mask>
<g mask="url(#mask4_1301_514)">
<mask id="mask5_1301_514" style="mask-type:luminance" maskUnits="userSpaceOnUse" x="8" y="27" width="13" height="11">
<path d="M8.37531 27.4832H20.0825V37.5179H8.37531V27.4832Z" fill="white"/>
</mask>
<g mask="url(#mask5_1301_514)">
<mask id="mask6_1301_514" style="mask-type:luminance" maskUnits="userSpaceOnUse" x="8" y="27" width="12" height="11">
<path d="M8.64508 27.6201H19.8882V37.2171H8.64508V27.6201Z" fill="white"/>
</mask>
<g mask="url(#mask6_1301_514)">
<mask id="mask7_1301_514" style="mask-type:luminance" maskUnits="userSpaceOnUse" x="8" y="27" width="12" height="11">
<path d="M14.3921 33.3675C13.8485 33.3675 13.3618 33.3675 12.7656 33.3119V28.4333C13.1983 28.4333 13.7942 28.3798 14.1734 28.3798C16.45 28.3798 18.4018 28.8665 18.4018 30.9813C18.4018 32.9331 16.7753 33.3658 14.3921 33.3658M19.8652 37.2154L16.6135 33.9081C18.1848 33.5833 19.1598 32.7144 19.1598 30.9813C19.1598 28.4894 17.2097 27.6201 14.1734 27.6201C12.4926 27.6201 10.3794 27.7832 8.64508 27.9467V37.1602H12.7656V34.0716C13.3618 34.1239 13.8485 34.1239 14.3921 34.1239C14.8792 34.1239 15.3119 34.1239 15.748 34.0716L18.781 37.2158L19.8652 37.2154Z" fill="white"/>
</mask>
<g mask="url(#mask7_1301_514)">
<path d="M8.64508 27.6201H19.8505V37.2158H8.64508V27.6201Z" fill="#8B6339"/>
</g>
</g>
</g>
</g>
</g>
<mask id="mask8_1301_514" style="mask-type:luminance" maskUnits="userSpaceOnUse" x="25" y="31" width="3" height="3">
<path d="M25.5245 31.7959H27.4043V33.6757H25.5245V31.7959Z" fill="white"/>
</mask>
<g mask="url(#mask8_1301_514)">
<mask id="mask9_1301_514" style="mask-type:luminance" maskUnits="userSpaceOnUse" x="25" y="31" width="3" height="3">
<path d="M25.5179 31.6633H27.6085V33.7539H25.5179V31.6633Z" fill="white"/>
</mask>
<g mask="url(#mask9_1301_514)">
<mask id="mask10_1301_514" style="mask-type:luminance" maskUnits="userSpaceOnUse" x="25" y="31" width="3" height="3">
<path d="M25.5247 31.7959H27.4045V33.6762H25.5247V31.7959Z" fill="white"/>
</mask>
<g mask="url(#mask10_1301_514)">
<path d="M25.5247 31.7959H27.4045V33.6762H25.5247V31.7959Z" fill="#8B6339"/>
</g>
</g>
</g>
<mask id="mask11_1301_514" style="mask-type:luminance" maskUnits="userSpaceOnUse" x="34" y="27" width="12" height="11">
<path d="M34.1691 27.8171H45.8931V37.3819H34.1691V27.8171Z" fill="white"/>
</mask>
<g mask="url(#mask11_1301_514)">
<mask id="mask12_1301_514" style="mask-type:luminance" maskUnits="userSpaceOnUse" x="34" y="27" width="12" height="11">
<path d="M40.356 37.346C35.9198 37.346 34.1691 35.4824 34.1691 32.1977V27.8176H38.275V32.4724C38.275 35.3189 39.6995 36.4152 41.7805 36.4152C43.861 36.4152 45.122 35.3189 45.122 32.4724V27.8171H45.888V32.1973C45.888 35.4837 44.7922 37.3455 40.3564 37.3455" fill="white"/>
</mask>
<g mask="url(#mask12_1301_514)">
<mask id="mask13_1301_514" style="mask-type:luminance" maskUnits="userSpaceOnUse" x="33" y="27" width="14" height="11">
<path d="M33.8801 27.4832H46.0054V37.5179H33.8801V27.4832Z" fill="white"/>
</mask>
<g mask="url(#mask13_1301_514)">
<mask id="mask14_1301_514" style="mask-type:luminance" maskUnits="userSpaceOnUse" x="34" y="27" width="12" height="11">
<path d="M34.169 27.8171H45.8883V37.3819H34.1686L34.169 27.8171Z" fill="white"/>
</mask>
<g mask="url(#mask14_1301_514)">
<mask id="mask15_1301_514" style="mask-type:luminance" maskUnits="userSpaceOnUse" x="34" y="27" width="12" height="11">
<path d="M40.3555 37.346C35.9193 37.346 34.1687 35.4824 34.1687 32.1977V27.8176H38.2746V32.4724C38.2746 35.3189 39.6991 36.4152 41.78 36.4152C43.8606 36.4152 45.1216 35.3189 45.1216 32.4724V27.8171H45.8876V32.1973C45.8876 35.4837 44.7917 37.3455 40.356 37.3455" fill="white"/>
</mask>
<g mask="url(#mask15_1301_514)">
<path d="M34.1689 27.8171H45.8929V37.3443H34.1685L34.1689 27.8171Z" fill="#8B6339"/>
</g>
</g>
</g>
</g>
</g>
<mask id="mask16_1301_514" style="mask-type:luminance" maskUnits="userSpaceOnUse" x="52" y="31" width="3" height="3">
<path d="M52.6514 31.7959H54.5329V33.6757H52.6514V31.7959Z" fill="white"/>
</mask>
<g mask="url(#mask16_1301_514)">
<mask id="mask17_1301_514" style="mask-type:luminance" maskUnits="userSpaceOnUse" x="52" y="31" width="3" height="3">
<path d="M52.2773 31.6633H54.786V33.7539H52.2773V31.6633Z" fill="white"/>
</mask>
<g mask="url(#mask17_1301_514)">
<mask id="mask18_1301_514" style="mask-type:luminance" maskUnits="userSpaceOnUse" x="52" y="31" width="3" height="3">
<path d="M52.6514 31.7959H54.5329V33.6762H52.6514V31.7959Z" fill="white"/>
</mask>
<g mask="url(#mask18_1301_514)">
<path d="M52.6514 31.7959H54.5309V33.6762H52.6514V31.7959Z" fill="#8B6339"/>
</g>
</g>
</g>
<mask id="mask19_1301_514" style="mask-type:luminance" maskUnits="userSpaceOnUse" x="61" y="0" width="99" height="65">
<path d="M61.2958 0H159.19V65H61.2958V0Z" fill="white"/>
</mask>
<g mask="url(#mask19_1301_514)">
<mask id="mask20_1301_514" style="mask-type:luminance" maskUnits="userSpaceOnUse" x="61" y="0" width="99" height="65">
<path d="M94.5163 3.92442C95.8425 5.63785 96.7264 5.7474 98.2191 7.68117C97.1132 8.51071 96.2297 8.89788 95.3445 8.89788C94.4038 8.89788 93.5203 8.40116 93.5203 7.35086C93.5203 6.30098 94.0183 5.19507 94.5163 3.92442ZM95.3441 0C94.4611 3.42644 92.692 5.08594 92.692 8.89746C92.692 10.5018 93.7979 11.4965 95.0125 11.4965C96.2297 11.4965 99.3785 10.3905 99.3785 7.0749C99.3785 4.69709 97.0024 3.75801 95.3445 1.60179C95.4574 1.15943 95.6205 0.661034 95.6761 0.0535147L95.3441 0ZM110.88 6.42181C112.667 6.42181 114.891 7.49971 116.846 9.89425C115.52 10.3366 113.364 11.1649 110.821 12.2704C110.102 10.5018 109.219 8.95349 108.169 7.68117C108.771 6.86292 109.739 6.42181 110.88 6.42181ZM132.377 13.541C133.427 13.541 135.197 14.5374 136.578 16.6376C136.235 16.6589 135.839 16.6706 135.408 16.6706C133.69 16.6706 131.425 16.4942 129.834 16.1396C130.165 14.9229 131.27 13.541 132.377 13.541ZM82.5218 3.758C81.6383 3.758 80.6976 4.42114 80.4212 6.9085C80.1996 9.33857 80.1996 12.1596 80.0344 14.371H79.8676C78.4026 10.4102 76.0344 6.18516 73.021 6.18516C72.9641 6.18516 72.9052 6.18642 72.8479 6.18809L72.5163 10.2258C72.5163 10.2258 72.5899 10.2174 72.717 10.2174C73.2597 10.2174 74.8013 10.3613 76.054 11.8815L76.4412 11.4408C77.3819 12.3816 78.4322 14.2614 79.8137 17.2995L80.3121 16.914C80.3121 16.914 80.5324 15.6972 80.7544 12.3816C80.8657 10.3905 80.8657 9.45314 80.9752 8.0696C81.0881 6.63422 81.5827 6.30265 82.0251 6.30265C82.7443 6.30265 83.5178 7.29734 84.0162 8.34722H84.2921C84.4589 7.46375 84.6776 6.63422 84.6776 6.0267C84.6776 5.47269 83.4626 3.75968 82.5235 3.75968L82.5218 3.758ZM118.947 15.8637C118.062 18.2402 117.73 20.6164 117.73 22.7722C117.73 24.5968 118.947 26.199 120.05 26.199C121.101 26.199 122.097 23.4909 121.931 20.6164H121.488C121.379 22.1646 120.88 23.6561 120.162 23.6561C119.278 23.6561 118.558 22.7153 118.558 21.2795C118.558 19.9532 118.947 17.907 119.499 16.0284L118.947 15.862V15.8637ZM146.528 25.9231C147.135 25.9231 148.076 26.8065 147.798 28.5752C146.861 28.2436 145.975 27.9676 145.146 27.1937C145.422 26.3658 146.142 25.9226 146.528 25.9226V25.9231ZM71.9072 25.1487C70.4718 28.6881 69.4771 31.9481 69.4771 33.9387C69.4771 35.8173 70.527 37.5859 71.5217 37.5859C72.572 37.5859 74.1202 34.9334 74.0078 31.9498H73.4559C73.2351 33.498 72.8479 34.9334 71.8532 34.9334C71.2996 34.9334 70.5809 34.4354 70.5809 32.5573C70.5809 30.6774 71.3552 28.6324 72.4607 25.4263L71.9072 25.1504V25.1487ZM89.3195 26.421C88.0484 29.8475 86.943 33.1092 86.943 35.3745C86.943 37.4191 87.9393 39.0769 89.1527 39.0769C90.1491 39.0769 91.8069 36.9767 92.1368 33.4947L91.694 33.3835C91.4736 34.9318 90.4773 36.4788 89.4826 36.4788C88.9307 36.4788 87.9899 35.6509 87.9899 33.7723C87.9899 31.8925 88.8734 29.7906 89.8681 26.5845L89.3162 26.4177L89.3195 26.421ZM80.5851 18.0195C79.7568 18.0195 78.9825 18.9569 78.6509 21.6667L78.8729 21.7762C78.8729 21.7762 79.4248 20.5051 79.9788 20.5051C80.5308 20.5051 81.0292 21.167 81.5259 21.9978C79.59 22.2202 78.597 22.6057 77.9878 23.3797C77.3786 24.154 77.2691 25.8658 77.2691 26.973C77.2691 31.1737 80.0884 31.3406 79.9755 41.068H80.3071C81.1366 30.0682 78.7588 31.1181 78.0973 25.6467C79.2162 24.8464 80.5098 24.5103 81.8081 24.5103C82.3061 24.5103 82.8028 24.5592 83.2924 24.6507L84.0128 22.3837C83.0169 19.2901 81.359 18.0195 80.5847 18.0195H80.5851ZM146.804 23.2705C145.368 23.2705 144.096 25.8135 144.096 28.0233C144.096 29.7919 145.477 30.511 147.079 31.0613C145.976 33.2743 143.763 35.5936 140.888 38.801C137.461 42.6163 136.244 44.4392 135.307 45.9302L135.75 46.2618C140.669 40.6796 141.608 40.7347 145.698 35.8156C146.804 34.4894 147.522 32.8855 148.02 31.3389C149.18 31.7813 150.343 32.2224 151.06 33.1615H151.28C151.723 31.8908 152.055 30.7849 150.617 29.7906C149.897 29.3495 149.236 29.0715 148.628 28.8511C148.737 28.0772 148.795 27.3585 148.795 26.697C148.795 25.0392 148.187 23.2705 146.804 23.2705ZM111.927 0.940756C107.893 0.940756 106.289 4.91911 106.289 8.18082C106.289 10.3366 107.173 11.3869 108.499 13.3207C103.746 15.5321 98.2747 18.4622 94.7353 21.2812L92.9111 28.1341C101.644 29.24 108.221 30.7882 110.323 33.498C103.692 38.1951 89.4303 46.4855 77.6006 46.4855C67.8193 46.4855 63.7276 40.075 63.7276 32.1149C63.7276 26.9729 64.9987 22.3867 67.8192 15.7541L67.0988 15.4226C64.2264 20.7259 61.2958 26.3654 61.2958 35.4285C61.2958 48.8048 70.7477 52.9516 76.7727 52.9516C88.7672 52.9516 98.3286 47.2582 107.006 40.6796C110.323 38.1918 113.529 33.7723 113.529 30.0666C113.529 25.423 105.184 24.4839 98.9361 23.4896L98.9917 23.2137C102.309 21.2222 106.287 19.1789 110.82 17.2439C111.096 17.7958 111.372 18.3477 111.648 19.0125L112.036 18.8996C112.036 18.1813 112.036 17.4625 111.981 16.7994C114.809 15.6429 117.686 14.6103 120.604 13.7045L122.318 8.78499V8.61858C118.78 3.47996 114.911 0.940756 111.927 0.940756ZM133.261 7.84799C130.056 7.84799 127.015 12.7688 127.015 17.4103C127.015 25.7006 138.179 19.344 140.612 25.2583C140.612 26.8065 134.476 32.5 124.805 38.9105C124.583 36.2024 124.75 32.7187 125.468 28.4088C127.402 27.3584 129.226 26.3642 130.553 25.7006L130.83 23.4336L130.717 23.2133C126.13 25.4803 120.658 28.4644 118.006 30.3421L117.839 32.9411H118.115C119.773 31.7813 122.04 30.3425 124.307 29.0719C123.533 33.2727 123.201 36.9199 123.201 39.9591C120.939 41.4718 118.615 42.8917 116.237 44.2156C100.372 53.5006 88.9863 57.5902 88.9863 57.5902L89.3751 58.8625C97.4447 55.988 105.128 53.6653 112.589 51.8424C114.633 50.956 118.78 48.5255 123.642 45.1525C124.859 51.8967 128.508 54.6044 132.818 54.6044C139.56 54.6044 152.827 45.6509 157.967 35.9231L159.019 30.1188C157.248 22.9896 153.933 21.4413 151.888 18.0701L152.055 17.848L154.266 18.6224L154.544 18.1796L148.519 10.6619L148.02 10.8835L146.639 17.0737C149.237 22.0488 154.986 26.9127 157.029 32.6601C149.789 41.6153 139.452 48.689 132.599 48.689C130.332 48.689 127.402 47.5851 125.856 43.6047C129.78 40.7318 134.09 37.3589 138.07 33.7673C140.891 31.2243 142.438 27.4663 142.438 22.4912C142.438 14.0361 136.526 7.84465 133.262 7.84465L133.261 7.84799ZM118.339 54.9962C117.233 56.654 116.405 58.3687 115.796 59.8614C115.022 59.0874 109.771 55.7701 109.771 55.7701C108.611 57.5948 107.78 59.5286 107.228 61.0752C109.604 62.5139 111.981 63.8402 113.031 64.9996H113.418C113.423 64.99 115.354 61.2955 115.794 60.2469C117.949 61.686 119.773 63.0123 120.714 64.1717H121.101C121.101 64.1717 123.809 59.7489 123.809 59.3634C123.809 58.9779 118.337 54.9962 118.337 54.9962H118.339Z" fill="white"/>
</mask>
<g mask="url(#mask20_1301_514)">
<mask id="mask21_1301_514" style="mask-type:luminance" maskUnits="userSpaceOnUse" x="61" y="-1" width="99" height="67">
<path d="M61.0576 -0.112549H159.314V65.1132H61.0576V-0.112549Z" fill="white"/>
</mask>
<g mask="url(#mask21_1301_514)">
<mask id="mask22_1301_514" style="mask-type:luminance" maskUnits="userSpaceOnUse" x="61" y="0" width="99" height="65">
<path d="M61.2958 0H159.081V65H61.2963L61.2958 0Z" fill="white"/>
</mask>
<g mask="url(#mask22_1301_514)">
<mask id="mask23_1301_514" style="mask-type:luminance" maskUnits="userSpaceOnUse" x="61" y="0" width="99" height="65">
<path d="M94.5163 3.92442C95.8425 5.63785 96.7264 5.74739 98.2191 7.68117C97.1132 8.51071 96.2297 8.89788 95.3445 8.89788C94.4038 8.89788 93.5203 8.40116 93.5203 7.35086C93.5203 6.30098 94.0183 5.19507 94.5163 3.92442ZM95.3441 0C94.4611 3.42644 92.692 5.08594 92.692 8.89746C92.692 10.5018 93.7979 11.4965 95.0126 11.4965C96.2297 11.4965 99.3785 10.3906 99.3785 7.07491C99.3785 4.69709 97.0024 3.75801 95.3445 1.60179C95.4574 1.15943 95.6205 0.661038 95.6761 0.0535186L95.3441 0ZM110.88 6.42181C112.667 6.42181 114.891 7.49971 116.846 9.89425C115.52 10.3366 113.364 11.1649 110.821 12.2704C110.102 10.5018 109.219 8.95349 108.169 7.68117C108.771 6.86292 109.739 6.42181 110.88 6.42181ZM132.377 13.541C133.427 13.541 135.197 14.5374 136.578 16.638C136.235 16.6589 135.839 16.6706 135.408 16.6706C133.69 16.6706 131.425 16.4942 129.834 16.1396C130.165 14.9229 131.27 13.541 132.377 13.541ZM82.5218 3.75801C81.6383 3.75801 80.6976 4.42114 80.4216 6.9085C80.1992 9.33858 80.1992 12.1596 80.0345 14.371H79.8676C78.4026 10.4102 76.0344 6.18516 73.021 6.18516C72.9641 6.18516 72.9052 6.18641 72.8479 6.18809L72.5163 10.2258C72.5163 10.2258 72.5899 10.2175 72.717 10.2175C73.2598 10.2175 74.8013 10.3613 76.054 11.8815L76.4412 11.4409C77.3819 12.3816 78.4322 14.2614 79.8137 17.2995L80.3121 16.914C80.3121 16.914 80.5324 15.6973 80.7544 12.3816C80.8657 10.3905 80.8657 9.45314 80.9752 8.0696C81.0881 6.63421 81.5827 6.30265 82.0251 6.30265C82.7443 6.30265 83.5178 7.29734 84.0162 8.34723H84.2921C84.4589 7.46375 84.6776 6.63421 84.6776 6.02669C84.6776 5.47269 83.4626 3.75968 82.5235 3.75968L82.5218 3.75801ZM118.947 15.8637C118.062 18.2402 117.73 20.6164 117.73 22.7722C117.73 24.5968 118.947 26.199 120.05 26.199C121.101 26.199 122.097 23.4909 121.931 20.6164H121.488C121.379 22.1646 120.88 23.6561 120.162 23.6561C119.278 23.6561 118.558 22.7153 118.558 21.2795C118.558 19.9532 118.947 17.907 119.499 16.0284L118.947 15.862V15.8637ZM146.528 25.9231C147.135 25.9231 148.076 26.8065 147.798 28.5752C146.861 28.2436 145.975 27.9676 145.146 27.1937C145.422 26.3658 146.142 25.9231 146.528 25.9231ZM71.9072 25.1487C70.4718 28.6881 69.4771 31.9481 69.4771 33.9387C69.4771 35.8173 70.527 37.5859 71.5217 37.5859C72.572 37.5859 74.1202 34.9334 74.0078 31.9498H73.4558C73.2351 33.498 72.8479 34.9334 71.8532 34.9334C71.2996 34.9334 70.5809 34.4355 70.5809 32.5573C70.5809 30.6774 71.3552 28.6324 72.4607 25.4263L71.9072 25.1504V25.1487ZM89.3195 26.421C88.0484 29.8475 86.943 33.1092 86.943 35.3745C86.943 37.4191 87.9393 39.0769 89.1527 39.0769C90.1491 39.0769 91.8069 36.9767 92.1368 33.4947L91.694 33.3835C91.4736 34.9318 90.4773 36.4788 89.4826 36.4788C88.9307 36.4788 87.9899 35.6509 87.9899 33.7723C87.9899 31.8925 88.8734 29.7906 89.8681 26.5845L89.3162 26.4177L89.3195 26.421ZM80.5851 18.0195C79.7568 18.0195 78.9825 18.9569 78.6509 21.6667L78.8729 21.7762C78.8729 21.7762 79.4248 20.5051 79.9788 20.5051C80.5308 20.5051 81.0291 21.167 81.5259 21.9978C79.59 22.2202 78.597 22.6057 77.9878 23.3801C77.3786 24.154 77.269 25.8658 77.269 26.973C77.269 31.1737 80.0884 31.3406 79.9755 41.068H80.3071C81.1366 30.0682 78.7588 31.1181 78.0973 25.6467C79.2162 24.8464 80.5099 24.5103 81.8081 24.5103C82.3061 24.5103 82.8028 24.5592 83.2924 24.6507L84.0128 22.3837C83.0169 19.2901 81.3595 18.0195 80.5851 18.0195ZM146.804 23.2706C145.368 23.2706 144.096 25.8135 144.096 28.0233C144.096 29.7919 145.477 30.511 147.079 31.0613C145.976 33.2743 143.763 35.5936 140.888 38.801C137.461 42.6163 136.244 44.4392 135.307 45.9302L135.75 46.2618C140.669 40.6791 141.608 40.7348 145.698 35.8156C146.804 34.4894 147.522 32.8855 148.02 31.3389C149.18 31.7813 150.343 32.2224 151.06 33.1615H151.28C151.723 31.8908 152.055 30.7849 150.617 29.7906C149.897 29.3495 149.236 29.0715 148.628 28.8511C148.737 28.0772 148.795 27.3585 148.795 26.697C148.795 25.0392 148.187 23.2706 146.804 23.2706ZM111.927 0.940756C107.893 0.940756 106.289 4.91911 106.289 8.18082C106.289 10.3366 107.173 11.3869 108.499 13.3207C103.746 15.5321 98.2747 18.4622 94.7353 21.2812L92.9111 28.1341C101.644 29.24 108.221 30.7882 110.323 33.498C103.692 38.1951 89.4303 46.4855 77.6006 46.4855C67.8193 46.4855 63.7276 40.075 63.7276 32.1149C63.7276 26.973 64.9987 22.3871 67.8193 15.7541L67.0988 15.4226C64.2268 20.7259 61.2958 26.3654 61.2958 35.4285C61.2958 48.8048 70.7477 52.9516 76.7727 52.9516C88.7672 52.9516 98.3286 47.2582 107.006 40.6791C110.323 38.1918 113.529 33.7723 113.529 30.0666C113.529 25.423 105.184 24.4839 98.9361 23.4896L98.9917 23.2137C102.309 21.2222 106.287 19.1789 110.82 17.2439C111.096 17.7958 111.372 18.3477 111.648 19.0125L112.036 18.8996C112.036 18.1813 112.036 17.4625 111.981 16.7994C114.809 15.6429 117.686 14.6103 120.604 13.7045L122.318 8.78499V8.61858C118.78 3.47996 114.911 0.940756 111.927 0.940756ZM133.26 7.848C130.056 7.848 127.015 12.7688 127.015 17.4103C127.015 25.7006 138.179 19.344 140.612 25.2583C140.612 26.8065 134.476 32.5 124.805 38.9105C124.583 36.2024 124.75 32.7187 125.468 28.4088C127.402 27.3585 129.226 26.3642 130.553 25.7006L130.83 23.4336L130.717 23.2133C126.13 25.4803 120.658 28.4644 118.006 30.3421L117.839 32.9411H118.115C119.773 31.7813 122.04 30.3425 124.307 29.0719C123.533 33.2727 123.201 36.9199 123.201 39.9592C120.939 41.4718 118.615 42.8917 116.237 44.2156C100.372 53.5006 88.9863 57.5902 88.9863 57.5902L89.3751 58.8625C97.4447 55.988 105.128 53.6653 112.589 51.8424C114.633 50.956 118.78 48.5255 123.642 45.1525C124.859 51.8967 128.508 54.6044 132.818 54.6044C139.56 54.6044 152.827 45.6509 157.967 35.9231L159.019 30.1188C157.248 22.9896 153.933 21.4413 151.888 18.07L152.055 17.848L154.266 18.6224L154.544 18.1796L148.519 10.6619L148.02 10.8835L146.639 17.0737C149.237 22.0488 154.986 26.9127 157.029 32.6601C149.789 41.6153 139.452 48.689 132.599 48.689C130.332 48.689 127.402 47.5851 125.856 43.6047C129.78 40.7318 134.09 37.3589 138.07 33.7673C140.891 31.2243 142.438 27.4663 142.438 22.4912C142.438 14.0361 136.526 7.84465 133.262 7.84465L133.26 7.848ZM118.339 54.9962C117.233 56.654 116.405 58.3687 115.796 59.8614C115.022 59.0874 109.771 55.7701 109.771 55.7701C108.611 57.5948 107.78 59.5286 107.228 61.0752C109.604 62.5139 111.981 63.8402 113.031 64.9996H113.418C113.423 64.99 115.354 61.2955 115.794 60.2469C117.949 61.686 119.773 63.0123 120.714 64.1717H121.101C121.101 64.1717 123.809 59.7489 123.809 59.3634C123.809 58.9779 118.337 54.9962 118.337 54.9962H118.339Z" fill="white"/>
</mask>
<g mask="url(#mask23_1301_514)">
<path d="M61.2958 0H158.994V65H61.2958V0Z" fill="#8B6339"/>
</g>
</g>
</g>
</g>
</g>
<mask id="mask24_1301_514" style="mask-type:luminance" maskUnits="userSpaceOnUse" x="164" y="31" width="3" height="3">
<path d="M164.693 31.7959H166.574V33.6757H164.693V31.7959Z" fill="white"/>
</mask>
<g mask="url(#mask24_1301_514)">
<mask id="mask25_1301_514" style="mask-type:luminance" maskUnits="userSpaceOnUse" x="164" y="31" width="3" height="3">
<path d="M164.332 31.6633H166.84V33.7539H164.332V31.6633Z" fill="white"/>
</mask>
<g mask="url(#mask25_1301_514)">
<mask id="mask26_1301_514" style="mask-type:luminance" maskUnits="userSpaceOnUse" x="164" y="31" width="3" height="3">
<path d="M164.693 31.7959H166.574V33.6762H164.693V31.7959Z" fill="white"/>
</mask>
<g mask="url(#mask26_1301_514)">
<path d="M164.693 31.7959H166.573V33.6762H164.693V31.7959Z" fill="#8B6339"/>
</g>
</g>
</g>
<mask id="mask27_1301_514" style="mask-type:luminance" maskUnits="userSpaceOnUse" x="173" y="27" width="16" height="11">
<path d="M173.338 27.7146H188.364V37.3801H173.338L173.338 27.7146Z" fill="white"/>
</mask>
<g mask="url(#mask27_1301_514)">
<mask id="mask28_1301_514" style="mask-type:luminance" maskUnits="userSpaceOnUse" x="173" y="27" width="16" height="11">
<path d="M184.203 27.8237L180 33.8295L173.829 27.7146H173.338V37.1627H174.102V33.0109L178.471 37.3801L184.203 29.2432V37.1627H188.354V27.8237H184.203Z" fill="white"/>
</mask>
<g mask="url(#mask28_1301_514)">
<mask id="mask29_1301_514" style="mask-type:luminance" maskUnits="userSpaceOnUse" x="173" y="27" width="16" height="11">
<path d="M173.112 27.4832H188.582V37.5179H173.112V27.4832Z" fill="white"/>
</mask>
<g mask="url(#mask29_1301_514)">
<mask id="mask30_1301_514" style="mask-type:luminance" maskUnits="userSpaceOnUse" x="173" y="27" width="16" height="11">
<path d="M173.338 27.7146H188.364V37.3801H173.337L173.338 27.7146Z" fill="white"/>
</mask>
<g mask="url(#mask30_1301_514)">
<mask id="mask31_1301_514" style="mask-type:luminance" maskUnits="userSpaceOnUse" x="173" y="27" width="16" height="11">
<path d="M184.203 27.8237L180 33.8295L173.829 27.7146H173.337V37.1627H174.102V33.0108L178.471 37.3801L184.203 29.2428V37.1623H188.353V27.8237H184.203Z" fill="white"/>
</mask>
<g mask="url(#mask31_1301_514)">
<path d="M173.338 27.7146H188.364V37.3801H173.337L173.338 27.7146Z" fill="#8B6339"/>
</g>
</g>
</g>
</g>
</g>
<mask id="mask32_1301_514" style="mask-type:luminance" maskUnits="userSpaceOnUse" x="195" y="31" width="2" height="3">
<path d="M195.119 31.7959H196.999V33.6757H195.119V31.7959Z" fill="white"/>
</mask>
<g mask="url(#mask32_1301_514)">
<mask id="mask33_1301_514" style="mask-type:luminance" maskUnits="userSpaceOnUse" x="194" y="31" width="4" height="3">
<path d="M194.854 31.6633H197.363V33.7539H194.854V31.6633Z" fill="white"/>
</mask>
<g mask="url(#mask33_1301_514)">
<mask id="mask34_1301_514" style="mask-type:luminance" maskUnits="userSpaceOnUse" x="195" y="31" width="2" height="3">
<path d="M195.119 31.7959H196.998V33.6762H195.119V31.7959Z" fill="white"/>
</mask>
<g mask="url(#mask34_1301_514)">
<path d="M195.119 31.7959H196.998V33.6762H195.119V31.7959Z" fill="#8B6339"/>
</g>
</g>
</g>
<mask id="mask35_1301_514" style="mask-type:luminance" maskUnits="userSpaceOnUse" x="203" y="27" width="5" height="11">
<path d="M203.764 27.8171H207.964V37.1599H203.764L203.764 27.8171Z" fill="white"/>
</mask>
<g mask="url(#mask35_1301_514)">
<mask id="mask36_1301_514" style="mask-type:luminance" maskUnits="userSpaceOnUse" x="203" y="27" width="6" height="11">
<path d="M203.635 27.4832H208.234V37.5179H203.635V27.4832Z" fill="white"/>
</mask>
<g mask="url(#mask36_1301_514)">
<mask id="mask37_1301_514" style="mask-type:luminance" maskUnits="userSpaceOnUse" x="203" y="27" width="5" height="11">
<path d="M203.764 27.8171H207.964V37.1599H203.764L203.764 27.8171Z" fill="white"/>
</mask>
<g mask="url(#mask37_1301_514)">
<path d="M203.764 27.8171H207.964V37.1536H203.764L203.764 27.8171Z" fill="#8B6339"/>
</g>
</g>
</g>
<mask id="mask38_1301_514" style="mask-type:luminance" maskUnits="userSpaceOnUse" x="214" y="31" width="3" height="3">
<path d="M214.729 31.7959H216.607V33.6757H214.729V31.7959Z" fill="white"/>
</mask>
<g mask="url(#mask38_1301_514)">
<mask id="mask39_1301_514" style="mask-type:luminance" maskUnits="userSpaceOnUse" x="214" y="31" width="4" height="3">
<path d="M214.505 31.6633H217.014V33.7539H214.505V31.6633Z" fill="white"/>
</mask>
<g mask="url(#mask39_1301_514)">
<mask id="mask40_1301_514" style="mask-type:luminance" maskUnits="userSpaceOnUse" x="214" y="31" width="3" height="3">
<path d="M214.729 31.7959H216.607V33.6762H214.729V31.7959Z" fill="white"/>
</mask>
<g mask="url(#mask40_1301_514)">
<path d="M214.729 31.7959H216.609V33.6762H214.729V31.7959Z" fill="#8B6339"/>
</g>
</g>
</g>
</svg>
