<svg width="77" height="71" viewBox="0 0 77 71" fill="none" xmlns="http://www.w3.org/2000/svg">
<mask id="mask0_1301_86" style="mask-type:luminance" maskUnits="userSpaceOnUse" x="18" y="0" width="42" height="53">
<path d="M18.23 0H59.27V52.003H18.23V0Z" fill="white"/>
</mask>
<g mask="url(#mask0_1301_86)">
<mask id="mask1_1301_86" style="mask-type:luminance" maskUnits="userSpaceOnUse" x="18" y="0" width="42" height="52">
<path d="M55.957 14.8789C54.902 17.3669 53.648 19.3589 52.195 20.8509C50.742 22.3439 48.941 23.4759 46.825 24.2539C44.703 25.0269 42.085 25.5539 38.973 25.8239V29.0269C40.766 29.4569 42.047 30.0229 42.824 30.7189C43.581 31.3861 44.0949 32.2859 44.285 33.2769C44.485 34.2809 44.575 35.8239 44.575 37.8749V37.9849H32.905V23.2679C32.905 21.2059 33.003 19.6749 33.19 18.6709C33.382 17.6669 33.87 16.8109 34.655 16.1119C35.44 15.4169 36.714 14.8499 38.503 14.4209V11.2179C35.39 10.9479 32.773 10.4209 30.655 9.64788C28.535 8.86988 26.733 7.73788 25.285 6.24488C23.831 4.75288 22.565 2.76088 21.511 0.275879H18.308V51.9599H59.171V14.8789H55.957Z" fill="white"/>
</mask>
<g mask="url(#mask1_1301_86)">
<mask id="mask2_1301_86" style="mask-type:luminance" maskUnits="userSpaceOnUse" x="18" y="-1" width="42" height="54">
<path d="M18 -0.297119H60V52.7029H18V-0.297119Z" fill="white"/>
</mask>
<g mask="url(#mask2_1301_86)">
<mask id="mask3_1301_86" style="mask-type:luminance" maskUnits="userSpaceOnUse" x="18" y="0" width="42" height="52">
<path d="M18.23 0.171875H59.21V51.9829H18.23V0.171875Z" fill="white"/>
</mask>
<g mask="url(#mask3_1301_86)">
<mask id="mask4_1301_86" style="mask-type:luminance" maskUnits="userSpaceOnUse" x="18" y="0" width="42" height="52">
<path d="M55.957 14.8789C54.902 17.3669 53.648 19.3589 52.195 20.8509C50.742 22.3439 48.941 23.4759 46.825 24.2539C44.703 25.0269 42.085 25.5539 38.973 25.8239V29.0269C40.766 29.4569 42.047 30.0229 42.824 30.7189C43.581 31.3861 44.0949 32.2858 44.285 33.2769C44.485 34.2809 44.575 35.8239 44.575 37.8749V37.9849H32.905V23.2679C32.905 21.2059 33.003 19.6749 33.19 18.6709C33.382 17.6669 33.87 16.8109 34.655 16.1119C35.44 15.4169 36.714 14.8499 38.503 14.4209V11.2179C35.39 10.9479 32.773 10.4209 30.655 9.64785C28.535 8.86985 26.733 7.73786 25.285 6.24486C23.831 4.75386 22.565 2.76186 21.511 0.276855H18.309V51.9609H59.172V14.8789H55.957Z" fill="white"/>
</mask>
<g mask="url(#mask4_1301_86)">
<path d="M-85.235 -66.9771H167.485V140.383H-85.235V-66.9771Z" fill="white"/>
</g>
</g>
</g>
</g>
</g>
<mask id="mask5_1301_86" style="mask-type:luminance" maskUnits="userSpaceOnUse" x="0" y="57" width="63" height="14">
<path d="M0 57.3279H62.715V70.7029H0V57.3279Z" fill="white"/>
</mask>
<g mask="url(#mask5_1301_86)">
<mask id="mask6_1301_86" style="mask-type:luminance" maskUnits="userSpaceOnUse" x="0" y="57" width="63" height="14">
<path d="M60.621 63.6008H59.13C58.614 63.6008 58.204 63.4528 57.927 63.1638C57.649 62.8738 57.501 62.4758 57.501 61.9798C57.501 61.5118 57.649 61.1518 57.939 60.8748C58.228 60.5978 58.614 60.4688 59.103 60.4688C59.587 60.4688 59.946 60.6048 60.223 60.8868C60.505 61.1638 60.633 61.5428 60.633 62.0188L60.621 63.6008ZM60.621 67.0228C60.621 67.4998 60.484 67.8908 60.195 68.1678C59.906 68.4448 59.539 68.5858 59.059 68.5858C58.574 68.5858 58.195 68.4458 57.918 68.1678C57.637 67.8898 57.5 67.5188 57.5 67.0548C57.5 66.5548 57.637 66.1598 57.926 65.8788C58.215 65.6008 58.613 65.4528 59.129 65.4528H60.621V67.0228ZM61.418 58.5158C61.211 58.7338 60.98 58.8478 60.711 58.8478C60.582 58.8478 60.421 58.8158 60.223 58.7458C59.8339 58.6234 59.4279 58.5627 59.02 58.5658C58.305 58.5658 57.688 58.7058 57.18 58.9758C56.6864 59.2327 56.281 59.6315 56.016 60.1208C55.746 60.6048 55.617 61.1708 55.617 61.8208C55.617 62.4488 55.836 63.0228 56.157 63.4528H6.97701V61.8318C6.97701 61.1638 6.83601 60.5658 6.55101 60.0578C6.27024 59.5533 5.84786 59.142 5.33601 58.8748C4.80901 58.5978 4.21101 58.4568 3.51601 58.4568C2.82001 58.4568 2.21101 58.5968 1.68401 58.8748C1.16883 59.1445 0.740621 59.5547 0.44901 60.0578C0.15201 60.5658 0.0230103 61.1638 0.0230103 61.8318V68.5148H39.867C40.355 68.5148 40.715 68.5658 40.953 68.6638C41.191 68.7658 41.371 68.9528 41.512 69.2228C41.648 69.4928 41.758 69.9298 41.84 70.5158H42.457C42.516 69.7888 42.625 69.2108 42.785 68.7928C42.941 68.3748 43.16 68.0388 43.449 67.7888C43.739 67.5428 44.156 67.3238 44.695 67.1438V66.5348H2.10201V61.9998C2.10201 61.5428 2.23001 61.1828 2.48001 60.9138C2.73001 60.6478 3.07801 60.5078 3.51601 60.5078C3.95301 60.5078 4.28101 60.6478 4.53101 60.9138C4.77701 61.1838 4.90601 61.5508 4.90601 61.9998V65.4598H56.136L56.046 65.5818C55.758 66.0578 55.609 66.6368 55.609 67.2918C55.609 68.2578 55.918 69.0228 56.523 69.5898C57.129 70.1558 57.984 70.4448 59.082 70.4448C60.184 70.4448 61.039 70.1558 61.648 69.5898C62.254 69.0228 62.551 68.2458 62.551 67.2728V57.3828H61.906C61.786 57.9218 61.629 58.2968 61.418 58.5158Z" fill="white"/>
</mask>
<g mask="url(#mask6_1301_86)">
<mask id="mask7_1301_86" style="mask-type:luminance" maskUnits="userSpaceOnUse" x="0" y="56" width="63" height="15">
<path d="M0 56.7029H63V70.7029H0V56.7029Z" fill="white"/>
</mask>
<g mask="url(#mask7_1301_86)">
<mask id="mask8_1301_86" style="mask-type:luminance" maskUnits="userSpaceOnUse" x="0" y="57" width="63" height="14">
<path d="M0 57.3279H62.555V70.6089H0V57.3279Z" fill="white"/>
</mask>
<g mask="url(#mask8_1301_86)">
<mask id="mask9_1301_86" style="mask-type:luminance" maskUnits="userSpaceOnUse" x="0" y="57" width="63" height="14">
<path d="M60.621 63.6008H59.13C58.614 63.6008 58.204 63.4528 57.927 63.1638C57.649 62.8738 57.501 62.4758 57.501 61.9798C57.501 61.5118 57.649 61.1518 57.939 60.8748C58.228 60.5978 58.614 60.4688 59.103 60.4688C59.587 60.4688 59.946 60.6048 60.223 60.8868C60.505 61.1638 60.633 61.5428 60.633 62.0188L60.621 63.6008ZM60.621 67.0228C60.621 67.4998 60.484 67.8898 60.195 68.1678C59.906 68.4448 59.539 68.5858 59.059 68.5858C58.574 68.5858 58.195 68.4458 57.918 68.1678C57.637 67.8908 57.5 67.5188 57.5 67.0548C57.5 66.5548 57.637 66.1598 57.926 65.8788C58.215 65.6008 58.613 65.4528 59.129 65.4528H60.621V67.0228ZM61.418 58.5148C61.211 58.7348 60.98 58.8478 60.711 58.8478C60.582 58.8478 60.421 58.8158 60.223 58.7458C59.8339 58.6234 59.4279 58.5627 59.02 58.5658C58.305 58.5658 57.687 58.7058 57.18 58.9758C56.6864 59.2327 56.281 59.6315 56.016 60.1208C55.746 60.6048 55.617 61.1708 55.617 61.8208C55.617 62.4488 55.836 63.0228 56.157 63.4528H6.97601V61.8318C6.97601 61.1638 6.83501 60.5658 6.55001 60.0578C6.26924 59.5533 5.84686 59.142 5.33501 58.8748C4.80801 58.5978 4.21001 58.4568 3.51501 58.4568C2.81901 58.4568 2.21001 58.5968 1.68301 58.8748C1.1682 59.1447 0.74035 59.5548 0.44901 60.0578C0.15201 60.5658 0.0230103 61.1638 0.0230103 61.8328V68.5168H39.867C40.355 68.5168 40.715 68.5668 40.953 68.6648C41.191 68.7658 41.371 68.9538 41.512 69.2238C41.648 69.4938 41.758 69.9308 41.84 70.5168H42.457C42.516 69.7898 42.625 69.2118 42.785 68.7938C42.941 68.3758 43.16 68.0398 43.449 67.7898C43.739 67.5438 44.156 67.3248 44.695 67.1448V66.5358H2.10201V61.9998C2.10201 61.5428 2.23001 61.1828 2.48001 60.9138C2.73001 60.6478 3.07801 60.5078 3.51601 60.5078C3.95301 60.5078 4.28101 60.6478 4.53101 60.9138C4.77701 61.1838 4.90601 61.5508 4.90601 61.9998V65.4598H56.136L56.046 65.5818C55.758 66.0578 55.609 66.6368 55.609 67.2918C55.609 68.2578 55.918 69.0228 56.523 69.5898C57.129 70.1558 57.984 70.4448 59.082 70.4448C60.184 70.4448 61.039 70.1558 61.648 69.5898C62.254 69.0228 62.551 68.2458 62.551 67.2728V57.3828H61.906C61.786 57.9218 61.629 58.2968 61.418 58.5148Z" fill="white"/>
</mask>
<g mask="url(#mask9_1301_86)">
<path d="M-85.235 -66.9773H167.485V140.383H-85.235V-66.9773Z" fill="white"/>
</g>
</g>
</g>
</g>
</g>
<mask id="mask10_1301_86" style="mask-type:luminance" maskUnits="userSpaceOnUse" x="64" y="53" width="13" height="13">
<path d="M64 53.2529H76.496V65.4729H64V53.2529Z" fill="white"/>
</mask>
<g mask="url(#mask10_1301_86)">
<mask id="mask11_1301_86" style="mask-type:luminance" maskUnits="userSpaceOnUse" x="64" y="53" width="13" height="13">
<path d="M75.746 57.163C75.574 57.703 75.356 58.109 75.09 58.406C74.82 58.706 74.473 58.914 74.043 59.066C73.617 59.215 73.027 59.324 72.293 59.383V60.008C72.879 60.09 73.309 60.199 73.586 60.34C73.863 60.476 74.055 60.656 74.145 60.894C74.235 61.133 74.281 61.492 74.281 61.969V63.473H66.261V58.16C66.261 57.683 66.313 57.324 66.402 57.086C66.492 56.848 66.68 56.668 66.961 56.527C67.238 56.387 67.668 56.277 68.254 56.199V55.582C67.516 55.523 66.93 55.414 66.504 55.266C66.1065 55.1345 65.7471 54.9079 65.457 54.606C65.187 54.32 64.969 53.902 64.801 53.363H64.184V65.461H76.352V57.176L75.746 57.163Z" fill="white"/>
</mask>
<g mask="url(#mask11_1301_86)">
<mask id="mask12_1301_86" style="mask-type:luminance" maskUnits="userSpaceOnUse" x="64" y="52" width="13" height="14">
<path d="M64 52.7031H77V65.7031H64V52.7031Z" fill="white"/>
</mask>
<g mask="url(#mask12_1301_86)">
<mask id="mask13_1301_86" style="mask-type:luminance" maskUnits="userSpaceOnUse" x="64" y="53" width="13" height="13">
<path d="M64 53.2532H76.402V65.4732H64V53.2532Z" fill="white"/>
</mask>
<g mask="url(#mask13_1301_86)">
<mask id="mask14_1301_86" style="mask-type:luminance" maskUnits="userSpaceOnUse" x="64" y="53" width="13" height="13">
<path d="M75.746 57.1633C75.574 57.7033 75.356 58.1093 75.09 58.4063C74.82 58.7063 74.473 58.9143 74.043 59.0663C73.617 59.2153 73.027 59.3243 72.293 59.3833V60.0083C72.879 60.0903 73.309 60.1993 73.586 60.3403C73.863 60.4763 74.055 60.6563 74.145 60.8943C74.235 61.1333 74.281 61.4923 74.281 61.9693V63.4733H66.261V58.1603C66.261 57.6833 66.312 57.3243 66.402 57.0863C66.492 56.8483 66.68 56.6683 66.961 56.5273C67.238 56.3873 67.668 56.2773 68.254 56.1993V55.5833C67.516 55.5243 66.93 55.4153 66.504 55.2663C66.1065 55.1347 65.7471 54.9082 65.457 54.6063C65.187 54.3203 64.969 53.9033 64.801 53.3633H64.184V65.4613H76.352V57.1763L75.746 57.1633Z" fill="white"/>
</mask>
<g mask="url(#mask14_1301_86)">
<path d="M-85.235 -66.9768H167.485V140.383H-85.235V-66.9768Z" fill="white"/>
</g>
</g>
</g>
</g>
</g>
</svg>
