<svg width="118" height="60" viewBox="0 0 118 60" fill="none" xmlns="http://www.w3.org/2000/svg">
<mask id="mask0_1301_802" style="mask-type:luminance" maskUnits="userSpaceOnUse" x="38" y="13" width="16" height="13">
<path d="M38.7504 13.7283H53.7505V25.4774H38.7504V13.7283Z" fill="white"/>
</mask>
<g mask="url(#mask0_1301_802)">
<mask id="mask1_1301_802" style="mask-type:luminance" maskUnits="userSpaceOnUse" x="38" y="13" width="16" height="13">
<path d="M53.5698 14.0649C48.3618 12.9097 39.6845 18.4379 38.785 25.1192C45.3395 26.6618 52.9267 19.6555 53.5698 14.0649Z" fill="white"/>
</mask>
<g mask="url(#mask1_1301_802)">
<mask id="mask2_1301_802" style="mask-type:luminance" maskUnits="userSpaceOnUse" x="38" y="13" width="16" height="13">
<path d="M38.3295 13.4885H53.7819V25.7439H38.3295V13.4885Z" fill="white"/>
</mask>
<g mask="url(#mask2_1301_802)">
<mask id="mask3_1301_802" style="mask-type:luminance" maskUnits="userSpaceOnUse" x="38" y="13" width="16" height="13">
<path d="M38.7504 13.7283H53.6631V25.4774H38.7504V13.7283Z" fill="white"/>
</mask>
<g mask="url(#mask3_1301_802)">
<mask id="mask4_1301_802" style="mask-type:luminance" maskUnits="userSpaceOnUse" x="38" y="13" width="16" height="13">
<path d="M53.5698 14.0649C48.3618 12.9097 39.6845 18.4379 38.785 25.1192C45.3395 26.6618 52.9267 19.6555 53.5698 14.0649Z" fill="white"/>
</mask>
<g mask="url(#mask4_1301_802)">
<path d="M-68.3423 -95.3147H192.691V165.718H-68.3423V-95.3147Z" fill="white"/>
</g>
</g>
</g>
</g>
</g>
<mask id="mask5_1301_802" style="mask-type:luminance" maskUnits="userSpaceOnUse" x="65" y="21" width="9" height="13">
<path d="M65.5044 21.729H73.7512V33.7286H65.5044V21.729Z" fill="white"/>
</mask>
<g mask="url(#mask5_1301_802)">
<mask id="mask6_1301_802" style="mask-type:luminance" maskUnits="userSpaceOnUse" x="65" y="21" width="9" height="13">
<path d="M73.5615 23.1235L68.8054 21.7727L65.5923 32.1194L70.2835 33.5347L73.5615 23.1235Z" fill="white"/>
</mask>
<g mask="url(#mask6_1301_802)">
<mask id="mask7_1301_802" style="mask-type:luminance" maskUnits="userSpaceOnUse" x="65" y="21" width="10" height="13">
<path d="M65.5044 21.4812H74.0299V33.7366H65.5044V21.4812Z" fill="white"/>
</mask>
<g mask="url(#mask7_1301_802)">
<mask id="mask8_1301_802" style="mask-type:luminance" maskUnits="userSpaceOnUse" x="65" y="21" width="9" height="13">
<path d="M65.5359 21.729H73.5781V33.5847H65.5364L65.5359 21.729Z" fill="white"/>
</mask>
<g mask="url(#mask8_1301_802)">
<mask id="mask9_1301_802" style="mask-type:luminance" maskUnits="userSpaceOnUse" x="65" y="21" width="9" height="13">
<path d="M73.5615 23.1237L68.8054 21.7729L65.5923 32.1197L70.2835 33.5349L73.5615 23.1237Z" fill="white"/>
</mask>
<g mask="url(#mask9_1301_802)">
<path d="M-68.3423 -95.3145H192.691V165.718H-68.3423V-95.3145Z" fill="white"/>
</g>
</g>
</g>
</g>
</g>
<mask id="mask10_1301_802" style="mask-type:luminance" maskUnits="userSpaceOnUse" x="17" y="0" width="15" height="20">
<path d="M17.5007 0.727051H31.7499V19.4788H17.5007V0.727051Z" fill="white"/>
</mask>
<g mask="url(#mask10_1301_802)">
<mask id="mask11_1301_802" style="mask-type:luminance" maskUnits="userSpaceOnUse" x="17" y="0" width="15" height="20">
<path d="M31.6524 19.4644C32.36 11.8149 24.9706 2.8131 17.5758 0.887939C16.7408 8.21239 24.1362 18.1137 31.6524 19.4644Z" fill="white"/>
</mask>
<g mask="url(#mask11_1301_802)">
<mask id="mask12_1301_802" style="mask-type:luminance" maskUnits="userSpaceOnUse" x="17" y="0" width="15" height="20">
<path d="M17.0158 0.700439H31.9354V19.8828H17.0158V0.700439Z" fill="white"/>
</mask>
<g mask="url(#mask12_1301_802)">
<mask id="mask13_1301_802" style="mask-type:luminance" maskUnits="userSpaceOnUse" x="17" y="0" width="15" height="20">
<path d="M17.5007 0.777588H31.7499V19.4787H17.5007V0.777588Z" fill="white"/>
</mask>
<g mask="url(#mask13_1301_802)">
<mask id="mask14_1301_802" style="mask-type:luminance" maskUnits="userSpaceOnUse" x="17" y="0" width="15" height="20">
<path d="M31.6524 19.4644C32.36 11.8149 24.9705 2.8131 17.5752 0.887939C16.7408 8.21239 24.1361 18.1137 31.6524 19.4644Z" fill="white"/>
</mask>
<g mask="url(#mask14_1301_802)">
<path d="M-68.3423 -95.3145H192.691V165.718H-68.3423V-95.3145Z" fill="white"/>
</g>
</g>
</g>
</g>
</g>
<mask id="mask15_1301_802" style="mask-type:luminance" maskUnits="userSpaceOnUse" x="0" y="18" width="32" height="8">
<path d="M0 18.2283H31.2507V25.7275H0V18.2283Z" fill="white"/>
</mask>
<g mask="url(#mask15_1301_802)">
<mask id="mask16_1301_802" style="mask-type:luminance" maskUnits="userSpaceOnUse" x="0" y="18" width="32" height="8">
<path d="M0.1604 22.6134C7.42037 27.8171 24.6461 25.8893 31.0716 21.1982C25.1624 17.0851 7.9367 17.0851 0.1604 22.6134Z" fill="white"/>
</mask>
<g mask="url(#mask16_1301_802)">
<mask id="mask17_1301_802" style="mask-type:luminance" maskUnits="userSpaceOnUse" x="-1" y="17" width="33" height="9">
<path d="M-0.0351562 17.7512H31.4025V25.7439H-0.0351562V17.7512Z" fill="white"/>
</mask>
<g mask="url(#mask17_1301_802)">
<mask id="mask18_1301_802" style="mask-type:luminance" maskUnits="userSpaceOnUse" x="0" y="18" width="32" height="8">
<path d="M0.0479736 18.2283H31.1963V25.7275H0.0479736V18.2283Z" fill="white"/>
</mask>
<g mask="url(#mask18_1301_802)">
<mask id="mask19_1301_802" style="mask-type:luminance" maskUnits="userSpaceOnUse" x="0" y="18" width="32" height="8">
<path d="M0.1604 22.6134C7.42037 27.8171 24.6461 25.8893 31.0716 21.1981C25.1624 17.0851 7.93616 17.0851 0.1604 22.6134Z" fill="white"/>
</mask>
<g mask="url(#mask19_1301_802)">
<path d="M-68.3423 -95.3147H192.691V165.718H-68.3423V-95.3147Z" fill="white"/>
</g>
</g>
</g>
</g>
</g>
<mask id="mask20_1301_802" style="mask-type:luminance" maskUnits="userSpaceOnUse" x="12" y="4" width="106" height="56">
<path d="M12.7531 4.97754H118V59.7271H12.7531V4.97754Z" fill="white"/>
</mask>
<g mask="url(#mask20_1301_802)">
<mask id="mask21_1301_802" style="mask-type:luminance" maskUnits="userSpaceOnUse" x="12" y="5" width="106" height="55">
<path d="M112.959 36.4924C111.225 42.7267 109.229 47.0304 107.368 49.7325C104.926 53.335 102.548 54.17 101.196 54.17C100.037 54.17 99.3335 53.3973 99.3335 51.4722C99.3335 46.5248 104.09 41.9604 110.388 41.1255L109.299 36.307C105.788 37.0188 102.718 38.4176 100.293 40.3283C94.4505 40.445 90.573 38.3659 86.9284 32.8952L82.7531 35.5285C87.1906 41.4441 87.1906 46.1315 84.2328 49.4138C83.5251 50.1864 82.3699 51.0853 81.2755 51.8553L77.1619 36.3006L72.4063 37.6519L75.0769 47.7386L67.2676 53.1373C66.1769 53.9099 65.1442 54.1636 64.5661 53.8449L69.3153 37.6519L64.5597 36.3011L61.0712 48.4456L54.5375 53.2641C53.5736 53.9723 52.6123 54.1636 51.9692 54.0368L60.2613 26.8533L55.5696 25.3736L52.3043 36.024C49.8937 37.4291 47.8977 38.116 45.7061 38.2364C46.0786 32.9186 44.3239 28.1939 38.2107 26.7888C34.0897 33.1579 36.2168 39.0985 40.4086 41.7313C37.6805 49.6973 32.0622 54.4881 26.1301 54.4881C21.0494 54.4881 18.0335 51.2122 18.0335 45.0408C18.0335 35.8493 25.2962 28.9761 33.9708 28.1998L35.4511 28.0708L36.4123 25.8212C38.9769 19.912 42.0636 12.5854 36.0255 6.73851L34.2266 5.00464L30.6938 8.73453L32.4863 10.462C35.758 13.6239 35.0195 17.4742 32.4863 23.4543C20.4643 25.4274 12.8836 34.2049 12.8836 45.2965C12.8836 53.8449 17.3211 59.4355 25.8695 59.4355C35.2965 59.4355 42.3396 52.2006 44.8397 43.1215C46.4505 43.1529 48.478 42.7432 50.4404 42.083L47.4661 51.7866C45.9241 56.7985 48.1743 59.111 51.7059 59.111C53.4419 59.111 55.3719 58.5323 57.3615 56.9903L59.6863 55.1584C59.9421 57.5647 61.5742 59.1067 64.1073 59.1067C65.8412 59.1067 68.029 58.3991 69.8892 57.0484L76.3312 52.5107L78.1775 59.4899C82.6774 57.367 85.6309 55.0587 87.6248 52.9998C89.9187 50.5941 91.9606 47.6048 91.0201 43.0261C92.5563 44.0252 94.3131 44.541 96.34 44.7808C95.0724 46.9409 94.3754 49.3973 94.3754 52.0365C94.3754 56.474 97.0103 59.1073 100.867 59.1073C103.887 59.1073 106.712 57.5647 109.415 54.3506L108.516 58.526L113.335 59.5522L117.964 37.8911L112.959 36.4924Z" fill="white"/>
</mask>
<g mask="url(#mask21_1301_802)">
<mask id="mask22_1301_802" style="mask-type:luminance" maskUnits="userSpaceOnUse" x="12" y="4" width="107" height="56">
<path d="M12.7531 4.96313H118.256V59.8459H12.7531V4.96313Z" fill="white"/>
</mask>
<g mask="url(#mask22_1301_802)">
<mask id="mask23_1301_802" style="mask-type:luminance" maskUnits="userSpaceOnUse" x="12" y="4" width="106" height="56">
<path d="M12.8132 4.98975H118V59.6274H12.8132V4.98975Z" fill="white"/>
</mask>
<g mask="url(#mask23_1301_802)">
<mask id="mask24_1301_802" style="mask-type:luminance" maskUnits="userSpaceOnUse" x="12" y="5" width="106" height="55">
<path d="M112.959 36.4926C111.225 42.7269 109.229 47.0307 107.368 49.7327C104.926 53.3352 102.548 54.1702 101.196 54.1702C100.037 54.1702 99.3335 53.3976 99.3335 51.4724C99.3335 46.525 104.09 41.9607 110.388 41.1257L109.299 36.3072C105.788 37.0191 102.718 38.4178 100.293 40.3286C94.4505 40.4453 90.573 38.3661 86.9284 32.8954L82.753 35.5287C87.1905 41.4443 87.1905 46.1318 84.2327 49.4141C83.5251 50.1867 82.3699 51.0856 81.2754 51.8555L77.1619 36.3008L72.4063 37.6521L75.0769 47.7388L67.2675 53.1376C66.1768 53.9102 65.1442 54.1638 64.566 53.8452L69.3153 37.6521L64.5596 36.3014L61.0711 48.4459L54.5374 53.2644C53.5735 53.9725 52.6123 54.1638 51.9691 54.037L60.2612 26.8535L55.5695 25.3738L52.3043 36.0243C49.8937 37.4294 47.8977 38.1162 45.7061 38.2366C46.0786 32.9189 44.3239 28.1942 38.2106 26.7891C34.0896 33.1581 36.2167 39.0988 40.4086 41.7315C37.6804 49.6975 32.0621 54.4883 26.13 54.4883C21.0494 54.4883 18.0335 51.2124 18.0335 45.041C18.0335 35.8495 25.2961 28.9764 33.9708 28.2L35.451 28.0711L36.4123 25.8214C38.9768 19.9122 42.0636 12.5856 36.0254 6.73875L34.2265 5.00488L30.6938 8.73478L32.4863 10.4623C35.7579 13.6241 35.0194 17.4745 32.4863 23.4545C20.4648 25.4277 12.8841 34.2057 12.8841 45.2968C12.8841 53.8452 17.3216 59.4358 25.87 59.4358C35.297 59.4358 42.3401 52.2008 44.8402 43.1217C46.451 43.1532 48.4785 42.7434 50.4409 42.0832L47.4666 51.7868C45.9246 56.7987 48.1748 59.1113 51.7064 59.1113C53.4424 59.1113 55.3724 58.5326 57.362 56.9905L59.6868 55.1586C59.9426 57.5649 61.5747 59.107 64.1078 59.107C65.8417 59.107 68.0295 58.3994 69.8897 57.0486L76.3317 52.5109L78.178 59.4901C82.6779 57.3673 85.6314 55.059 87.6253 53.0001C89.9192 50.5943 91.961 47.6051 91.0206 43.0264C92.5568 44.0254 94.3135 44.5412 96.3405 44.781C95.0728 46.9411 94.3759 49.3975 94.3759 52.0367C94.3759 56.4742 97.0108 59.1075 100.868 59.1075C103.888 59.1075 106.712 57.5649 109.416 54.3508L108.517 58.5262L113.335 59.5524L117.964 37.8914L112.959 36.4926Z" fill="white"/>
</mask>
<g mask="url(#mask24_1301_802)">
<path d="M-68.3423 -95.3145H192.691V165.718H-68.3423V-95.3145Z" fill="white"/>
</g>
</g>
</g>
</g>
</g>
</svg>
