<svg width="147" height="44" viewBox="0 0 147 44" fill="none" xmlns="http://www.w3.org/2000/svg">
<mask id="mask0_1301_515" style="mask-type:luminance" maskUnits="userSpaceOnUse" x="0" y="21" width="2" height="2">
<path d="M0 21.502H1.27237V22.7732H0V21.502Z" fill="white"/>
</mask>
<g mask="url(#mask0_1301_515)">
<mask id="mask1_1301_515" style="mask-type:luminance" maskUnits="userSpaceOnUse" x="-1" y="21" width="3" height="2">
<path d="M-0.273926 21.4124H1.42257V22.8261H-0.273926V21.4124Z" fill="white"/>
</mask>
<g mask="url(#mask1_1301_515)">
<mask id="mask2_1301_515" style="mask-type:luminance" maskUnits="userSpaceOnUse" x="0" y="21" width="2" height="2">
<path d="M0 21.502H1.27237V22.7735H0V21.502Z" fill="white"/>
</mask>
<g mask="url(#mask2_1301_515)">
<path d="M0 21.502H1.27124V22.7735H0V21.502Z" fill="white"/>
</g>
</g>
</g>
<mask id="mask3_1301_515" style="mask-type:luminance" maskUnits="userSpaceOnUse" x="5" y="18" width="9" height="8">
<path d="M5.84613 18.678H13.4493V25.1925H5.84613V18.678Z" fill="white"/>
</mask>
<g mask="url(#mask3_1301_515)">
<mask id="mask4_1301_515" style="mask-type:luminance" maskUnits="userSpaceOnUse" x="5" y="18" width="9" height="8">
<path d="M9.73253 22.5647C9.36495 22.5647 9.03583 22.5647 8.63263 22.527V19.2279C8.92528 19.2279 9.3282 19.1917 9.58465 19.1917C11.1245 19.1917 12.4441 19.5209 12.4441 20.951C12.4441 22.2709 11.3442 22.5635 9.73253 22.5635M13.4337 25.1668L11.2348 22.9303C12.2974 22.7106 12.9567 22.123 12.9567 20.951C12.9567 19.2658 11.638 18.678 9.58465 18.678C8.448 18.678 7.01898 18.7882 5.84613 18.8988V25.1295H8.63263V23.0408C9.03583 23.0762 9.36495 23.0762 9.73253 23.0762C10.0619 23.0762 10.3546 23.0762 10.6495 23.0408L12.7006 25.1671L13.4337 25.1668Z" fill="white"/>
</mask>
<g mask="url(#mask4_1301_515)">
<mask id="mask5_1301_515" style="mask-type:luminance" maskUnits="userSpaceOnUse" x="5" y="18" width="9" height="8">
<path d="M5.66382 18.5854H13.5808V25.3714H5.66382V18.5854Z" fill="white"/>
</mask>
<g mask="url(#mask5_1301_515)">
<mask id="mask6_1301_515" style="mask-type:luminance" maskUnits="userSpaceOnUse" x="5" y="18" width="9" height="8">
<path d="M5.84625 18.678H13.4494V25.1679H5.84625V18.678Z" fill="white"/>
</mask>
<g mask="url(#mask6_1301_515)">
<mask id="mask7_1301_515" style="mask-type:luminance" maskUnits="userSpaceOnUse" x="5" y="18" width="9" height="8">
<path d="M9.73265 22.5647C9.36508 22.5647 9.03595 22.5647 8.63275 22.5271V19.2279C8.9254 19.2279 9.32832 19.1917 9.58477 19.1917C11.1243 19.1917 12.4442 19.5209 12.4442 20.951C12.4442 22.2709 11.3443 22.5635 9.73265 22.5635M13.4338 25.1668L11.2349 22.9303C12.2975 22.7106 12.9568 22.123 12.9568 20.951C12.9568 19.2658 11.6381 18.678 9.58477 18.678C8.44812 18.678 7.0191 18.7883 5.84625 18.8988V25.1295H8.63275V23.0408C9.03595 23.0762 9.36508 23.0762 9.73265 23.0762C10.0621 23.0762 10.3547 23.0762 10.6496 23.0408L12.7007 25.1671L13.4338 25.1668Z" fill="white"/>
</mask>
<g mask="url(#mask7_1301_515)">
<path d="M5.84625 18.678H13.4239V25.1671H5.84625V18.678Z" fill="white"/>
</g>
</g>
</g>
</g>
</g>
<mask id="mask8_1301_515" style="mask-type:luminance" maskUnits="userSpaceOnUse" x="17" y="21" width="2" height="2">
<path d="M17.261 21.502H18.5322V22.7732H17.261V21.502Z" fill="white"/>
</mask>
<g mask="url(#mask8_1301_515)">
<mask id="mask9_1301_515" style="mask-type:luminance" maskUnits="userSpaceOnUse" x="17" y="21" width="2" height="2">
<path d="M17.2565 21.4124H18.6703V22.8261H17.2565V21.4124Z" fill="white"/>
</mask>
<g mask="url(#mask9_1301_515)">
<mask id="mask10_1301_515" style="mask-type:luminance" maskUnits="userSpaceOnUse" x="17" y="21" width="2" height="2">
<path d="M17.2611 21.502H18.5324V22.7735H17.2611V21.502Z" fill="white"/>
</mask>
<g mask="url(#mask10_1301_515)">
<path d="M17.2611 21.502H18.5324V22.7735H17.2611V21.502Z" fill="white"/>
</g>
</g>
</g>
<mask id="mask11_1301_515" style="mask-type:luminance" maskUnits="userSpaceOnUse" x="23" y="18" width="9" height="8">
<path d="M23.1069 18.8113H31.0352V25.2795H23.1069V18.8113Z" fill="white"/>
</mask>
<g mask="url(#mask11_1301_515)">
<mask id="mask12_1301_515" style="mask-type:luminance" maskUnits="userSpaceOnUse" x="23" y="18" width="9" height="8">
<path d="M27.2907 25.2551C24.2908 25.2551 23.1069 23.9949 23.1069 21.7736V18.8116H25.8835V21.9594C25.8835 23.8844 26.8468 24.6257 28.2541 24.6257C29.661 24.6257 30.5138 23.8844 30.5138 21.9594V18.8113H31.0318V21.7734C31.0318 23.9958 30.2907 25.2549 27.291 25.2549" fill="white"/>
</mask>
<g mask="url(#mask12_1301_515)">
<mask id="mask13_1301_515" style="mask-type:luminance" maskUnits="userSpaceOnUse" x="22" y="18" width="10" height="8">
<path d="M22.9115 18.5854H31.1112V25.3714H22.9115V18.5854Z" fill="white"/>
</mask>
<g mask="url(#mask13_1301_515)">
<mask id="mask14_1301_515" style="mask-type:luminance" maskUnits="userSpaceOnUse" x="23" y="18" width="9" height="8">
<path d="M23.1068 18.8113H31.032V25.2795H23.1065L23.1068 18.8113Z" fill="white"/>
</mask>
<g mask="url(#mask14_1301_515)">
<mask id="mask15_1301_515" style="mask-type:luminance" maskUnits="userSpaceOnUse" x="23" y="18" width="9" height="8">
<path d="M27.2905 25.2551C24.2905 25.2551 23.1066 23.9949 23.1066 21.7736V18.8116H25.8832V21.9594C25.8832 23.8844 26.8466 24.6257 28.2538 24.6257C29.6608 24.6257 30.5135 23.8844 30.5135 21.9594V18.8113H31.0315V21.7734C31.0315 23.9958 30.2905 25.2549 27.2908 25.2549" fill="white"/>
</mask>
<g mask="url(#mask15_1301_515)">
<path d="M23.1067 18.8113H31.035V25.254H23.1064L23.1067 18.8113Z" fill="white"/>
</g>
</g>
</g>
</g>
</g>
<mask id="mask16_1301_515" style="mask-type:luminance" maskUnits="userSpaceOnUse" x="35" y="21" width="2" height="2">
<path d="M35.6055 21.502H36.8779V22.7732H35.6055V21.502Z" fill="white"/>
</mask>
<g mask="url(#mask16_1301_515)">
<mask id="mask17_1301_515" style="mask-type:luminance" maskUnits="userSpaceOnUse" x="35" y="21" width="3" height="2">
<path d="M35.3525 21.4124H37.049V22.8261H35.3525V21.4124Z" fill="white"/>
</mask>
<g mask="url(#mask17_1301_515)">
<mask id="mask18_1301_515" style="mask-type:luminance" maskUnits="userSpaceOnUse" x="35" y="21" width="2" height="2">
<path d="M35.6055 21.502H36.8779V22.7735H35.6055V21.502Z" fill="white"/>
</mask>
<g mask="url(#mask18_1301_515)">
<path d="M35.6055 21.502H36.8765V22.7735H35.6055V21.502Z" fill="white"/>
</g>
</g>
</g>
<mask id="mask19_1301_515" style="mask-type:luminance" maskUnits="userSpaceOnUse" x="41" y="0" width="67" height="44">
<path d="M41.4514 0H107.652V43.9563H41.4514V0Z" fill="white"/>
</mask>
<g mask="url(#mask19_1301_515)">
<mask id="mask20_1301_515" style="mask-type:luminance" maskUnits="userSpaceOnUse" x="41" y="0" width="67" height="44">
<path d="M63.9167 2.65389C64.8136 3.8126 65.4113 3.88668 66.4207 5.1944C65.6728 5.75537 65.0754 6.0172 64.4768 6.0172C63.8406 6.0172 63.2432 5.68129 63.2432 4.97102C63.2432 4.26104 63.5799 3.51317 63.9167 2.65389ZM64.4765 0C63.8794 2.31714 62.683 3.43937 62.683 6.01692C62.683 7.10183 63.4309 7.77449 64.2523 7.77449C65.0754 7.77449 67.2048 7.02661 67.2048 4.78441C67.2048 3.17641 65.5979 2.54135 64.4768 1.08321C64.5531 0.784064 64.6634 0.447025 64.701 0.0361894L64.4765 0ZM74.9827 4.34275C76.1911 4.34275 77.6954 5.07168 79.0175 6.69099C78.1206 6.99014 76.6628 7.55027 74.9431 8.29786C74.4567 7.10183 73.8596 6.05481 73.1493 5.1944C73.5568 4.64106 74.2108 4.34275 74.9827 4.34275ZM89.52 9.15714C90.2302 9.15714 91.4274 9.83093 92.3608 11.2512C92.1289 11.2656 91.8614 11.2735 91.5699 11.2735C90.4078 11.2735 88.8761 11.1542 87.8003 10.9144C88.0245 10.0916 88.7712 9.15714 89.52 9.15714ZM55.8054 2.54135C55.208 2.54135 54.5718 2.9898 54.3849 4.67187C54.235 6.31522 54.235 8.22293 54.1234 9.7184H54.0105C53.0198 7.03991 51.4183 4.18272 49.3805 4.18272C49.3421 4.18272 49.3022 4.18357 49.2635 4.1847L49.0392 6.91521C49.0392 6.91521 49.089 6.90956 49.1749 6.90956C49.542 6.90956 50.5845 7.00682 51.4316 8.0349L51.6934 7.73688C52.3296 8.37307 53.0399 9.64432 53.9741 11.6988L54.3111 11.4381C54.3111 11.4381 54.4601 10.6153 54.6103 8.37307C54.6855 7.02661 54.6855 6.39269 54.7595 5.45707C54.8359 4.48639 55.1704 4.26217 55.4695 4.26217C55.9559 4.26217 56.4789 4.93483 56.816 5.64482H57.0026C57.1154 5.04736 57.2633 4.48639 57.2633 4.07556C57.2633 3.70091 56.4416 2.54248 55.8066 2.54248L55.8054 2.54135ZM80.4378 10.7278C79.8392 12.335 79.615 13.9418 79.615 15.3997C79.615 16.6336 80.4378 17.7171 81.1842 17.7171C81.8945 17.7171 82.5683 15.8857 82.4557 13.9418H82.1563C82.0825 14.9889 81.7455 15.9974 81.2594 15.9974C80.662 15.9974 80.1748 15.3612 80.1748 14.3903C80.1748 13.4934 80.4378 12.1096 80.811 10.8392L80.4378 10.7267V10.7278ZM99.0894 17.5305C99.5002 17.5305 100.136 18.1279 99.9486 19.324C99.3147 19.0998 98.7158 18.9131 98.1549 18.3898C98.3415 17.8299 98.8287 17.5302 99.0894 17.5302V17.5305ZM48.6273 17.0068C47.6566 19.4003 46.9839 21.6049 46.9839 22.9511C46.9839 24.2215 47.6939 25.4175 48.3666 25.4175C49.0768 25.4175 50.1239 23.6238 50.0478 21.606H49.6746C49.5253 22.6531 49.2635 23.6238 48.5908 23.6238C48.2164 23.6238 47.7304 23.287 47.7304 22.0169C47.7304 20.7456 48.254 19.3627 49.0016 17.1946L48.6273 17.008V17.0068ZM60.4024 17.8672C59.5428 20.1844 58.7952 22.3901 58.7952 23.9221C58.7952 25.3047 59.469 26.4258 60.2896 26.4258C60.9634 26.4258 62.0845 25.0055 62.3076 22.6508L62.0081 22.5756C61.8591 23.6226 61.1853 24.6688 60.5127 24.6688C60.1394 24.6688 59.5032 24.1089 59.5032 22.8386C59.5032 21.5673 60.1007 20.1459 60.7734 17.9778L60.4001 17.865L60.4024 17.8672ZM54.4957 12.1857C53.9356 12.1857 53.412 12.8196 53.1877 14.6521L53.3379 14.7262C53.3379 14.7262 53.7111 13.8666 54.0857 13.8666C54.459 13.8666 54.796 14.3142 55.1319 14.876C53.8228 15.0265 53.1513 15.2872 52.7393 15.8105C52.3273 16.3342 52.2532 17.4918 52.2532 18.2405C52.2532 21.0813 54.1598 21.1941 54.0835 27.7723H54.3077C54.8687 20.3337 53.2607 21.0437 52.8134 17.3436C53.57 16.8024 54.4448 16.5751 55.3228 16.5751C55.6595 16.5751 55.9954 16.6082 56.3265 16.6701L56.8137 15.137C56.1402 13.0449 55.0191 12.1857 54.4955 12.1857H54.4957ZM99.276 15.7367C98.3053 15.7367 97.4449 17.4564 97.4449 18.9507C97.4449 20.1468 98.3791 20.6331 99.4626 21.0052C98.7161 22.5018 97.2195 24.0702 95.2756 26.2392C92.9582 28.8193 92.1354 30.0521 91.5015 31.0604L91.8009 31.2846C95.1275 27.5096 95.7625 27.5469 98.5284 24.2203C99.276 23.3235 99.762 22.2388 100.099 21.193C100.883 21.4921 101.669 21.7904 102.154 22.4255H102.303C102.603 21.5662 102.827 20.8183 101.855 20.1459C101.368 19.8476 100.921 19.6596 100.51 19.5106C100.584 18.9872 100.622 18.5012 100.622 18.0539C100.622 16.9328 100.212 15.7367 99.276 15.7367ZM75.6907 0.636187C72.9627 0.636187 71.8781 3.32655 71.8781 5.53228C71.8781 6.99014 72.4755 7.70041 73.3724 9.00813C70.1584 10.5036 66.4583 12.4851 64.0648 14.3914L62.8312 19.0257C68.7367 19.7735 73.1847 20.8206 74.606 22.6531C70.1216 25.8295 60.4773 31.4358 52.4775 31.4358C45.8628 31.4358 43.0958 27.1007 43.0958 21.7177C43.0958 18.2405 43.9554 15.139 45.8628 10.6537L45.3756 10.4295C43.4331 14.0159 41.4514 17.8296 41.4514 23.9585C41.4514 33.0043 47.8432 35.8086 51.9176 35.8086C60.0289 35.8086 66.4948 31.9584 72.363 27.5096C74.606 25.8272 76.7742 22.8386 76.7742 20.3325C76.7742 17.1923 71.1305 16.5573 66.9056 15.8849L66.9432 15.6983C69.1863 14.3515 71.8769 12.9697 74.9419 11.6612C75.1286 12.0344 75.3152 12.4076 75.5018 12.8572L75.7647 12.7809C75.7647 12.2951 75.7647 11.809 75.7271 11.3606C77.6397 10.5785 79.5855 9.88022 81.5589 9.26769L82.7176 5.94086V5.82832C80.3252 2.35332 77.7087 0.636187 75.6907 0.636187ZM90.1177 5.30721C87.9504 5.30721 85.894 8.6349 85.894 11.7737C85.894 17.3801 93.4434 13.0814 95.089 17.0809C95.089 18.1279 90.9394 21.9781 84.3996 26.3133C84.2495 24.4819 84.362 22.126 84.8481 19.2114C86.1558 18.5012 87.3894 17.8288 88.2863 17.3801L88.4741 15.847L88.3977 15.698C85.2954 17.2311 81.5953 19.249 79.8016 20.5189L79.689 22.2764H79.8756C80.9968 21.4921 82.5298 20.5192 84.0626 19.6599C83.5392 22.5007 83.315 24.9671 83.315 27.0224C81.7849 28.0453 80.2137 29.0056 78.6055 29.9008C67.8763 36.1798 60.177 38.9454 60.177 38.9454L60.44 39.8058C65.8971 37.8619 71.0926 36.2912 76.1383 35.0584C77.5209 34.459 80.3252 32.8154 83.6133 30.5344C84.4361 35.0952 86.9034 36.9263 89.8183 36.9263C94.3776 36.9263 103.349 30.8715 106.825 24.293L107.537 20.3679C106.339 15.5467 104.097 14.4997 102.714 12.2199L102.827 12.0697L104.322 12.5934L104.51 12.294L100.436 7.21012L100.099 7.35998L99.1646 11.5461C100.922 14.9105 104.809 18.1998 106.191 22.0864C101.295 28.1424 94.3047 32.9259 89.6701 32.9259C88.1373 32.9259 86.1555 32.1795 85.1099 29.4877C87.7638 27.5449 90.6787 25.264 93.3702 22.8352C95.2779 21.1155 96.3238 18.5741 96.3238 15.2097C96.3238 9.49191 92.3257 5.30495 90.1185 5.30495L90.1177 5.30721ZM80.0269 37.1912C79.279 38.3123 78.7192 39.4719 78.3072 40.4813C77.7836 39.9579 74.2328 37.7146 74.2328 37.7146C73.4485 38.9485 72.8864 40.2562 72.5131 41.3021C74.12 42.2751 75.7271 43.1719 76.4374 43.956H76.699C76.7024 43.9495 78.0081 41.4511 78.3061 40.742C79.7628 41.7152 80.9968 42.6121 81.6329 43.3962H81.8945C81.8945 43.3962 83.7259 40.4052 83.7259 40.1445C83.7259 39.8838 80.0258 37.1912 80.0258 37.1912H80.0269Z" fill="white"/>
</mask>
<g mask="url(#mask20_1301_515)">
<mask id="mask21_1301_515" style="mask-type:luminance" maskUnits="userSpaceOnUse" x="41" y="-1" width="67" height="46">
<path d="M41.2902 -0.0761719H107.736V44.0328H41.2902V-0.0761719Z" fill="white"/>
</mask>
<g mask="url(#mask21_1301_515)">
<mask id="mask22_1301_515" style="mask-type:luminance" maskUnits="userSpaceOnUse" x="41" y="0" width="67" height="44">
<path d="M41.4514 0H107.578V43.9563H41.4516L41.4514 0Z" fill="white"/>
</mask>
<g mask="url(#mask22_1301_515)">
<mask id="mask23_1301_515" style="mask-type:luminance" maskUnits="userSpaceOnUse" x="41" y="0" width="67" height="44">
<path d="M63.9167 2.65389C64.8136 3.8126 65.4113 3.88668 66.4207 5.1944C65.6728 5.75537 65.0754 6.0172 64.4768 6.0172C63.8406 6.0172 63.2432 5.68129 63.2432 4.97103C63.2432 4.26104 63.5799 3.51317 63.9167 2.65389ZM64.4765 0C63.8794 2.31714 62.683 3.43937 62.683 6.01692C62.683 7.10183 63.4309 7.77449 64.2523 7.77449C65.0754 7.77449 67.2048 7.02662 67.2048 4.78441C67.2048 3.17641 65.5979 2.54136 64.4768 1.08321C64.5532 0.784065 64.6634 0.447028 64.701 0.036192L64.4765 0ZM74.9827 4.34275C76.1911 4.34275 77.6954 5.07168 79.0175 6.69099C78.1206 6.99014 76.6628 7.55027 74.9431 8.29786C74.4567 7.10183 73.8596 6.05481 73.1493 5.1944C73.5568 4.64106 74.2108 4.34275 74.9827 4.34275ZM89.52 9.15714C90.2302 9.15714 91.4274 9.83093 92.3608 11.2515C92.1289 11.2656 91.8614 11.2735 91.5699 11.2735C90.4078 11.2735 88.8761 11.1542 87.8003 10.9144C88.0245 10.0916 88.7712 9.15714 89.52 9.15714ZM55.8054 2.54136C55.208 2.54136 54.5718 2.9898 54.3852 4.67188C54.2348 6.31522 54.2348 8.22293 54.1234 9.7184H54.0105C53.0198 7.03991 51.4183 4.18272 49.3805 4.18272C49.3421 4.18272 49.3022 4.18357 49.2635 4.1847L49.0392 6.91521C49.0392 6.91521 49.089 6.90956 49.175 6.90956C49.542 6.90956 50.5845 7.00682 51.4316 8.0349L51.6934 7.73688C52.3296 8.37307 53.0399 9.64432 53.9741 11.6988L54.3111 11.4381C54.3111 11.4381 54.4601 10.6153 54.6103 8.37307C54.6855 7.02662 54.6855 6.39269 54.7595 5.45707C54.8359 4.48639 55.1704 4.26217 55.4695 4.26217C55.9559 4.26217 56.4789 4.93483 56.816 5.64482H57.0026C57.1154 5.04737 57.2633 4.48639 57.2633 4.07556C57.2633 3.70091 56.4416 2.54249 55.8066 2.54249L55.8054 2.54136ZM80.4378 10.7278C79.8392 12.335 79.615 13.9418 79.615 15.3997C79.615 16.6336 80.4378 17.7171 81.1842 17.7171C81.8945 17.7171 82.5683 15.8857 82.4557 13.9418H82.1563C82.0825 14.9889 81.7455 15.9974 81.2594 15.9974C80.662 15.9974 80.1748 15.3612 80.1748 14.3903C80.1748 13.4934 80.4378 12.1096 80.811 10.8392L80.4378 10.7267V10.7278ZM99.0894 17.5305C99.5002 17.5305 100.136 18.1279 99.9486 19.324C99.3147 19.0998 98.7158 18.9131 98.1549 18.3898C98.3415 17.8299 98.8287 17.5305 99.0894 17.5305ZM48.6273 17.0068C47.6566 19.4003 46.9839 21.6049 46.9839 22.9511C46.9839 24.2215 47.6939 25.4175 48.3666 25.4175C49.0768 25.4175 50.1239 23.6238 50.0478 21.606H49.6746C49.5253 22.6531 49.2635 23.6238 48.5908 23.6238C48.2164 23.6238 47.7304 23.287 47.7304 22.0169C47.7304 20.7456 48.254 19.3627 49.0016 17.1946L48.6273 17.008V17.0068ZM60.4024 17.8672C59.5428 20.1844 58.7952 22.3901 58.7952 23.9221C58.7952 25.3047 59.469 26.4258 60.2896 26.4258C60.9634 26.4258 62.0845 25.0055 62.3076 22.6508L62.0081 22.5756C61.8591 23.6226 61.1853 24.6688 60.5127 24.6688C60.1394 24.6688 59.5032 24.109 59.5032 22.8386C59.5032 21.5673 60.1007 20.1459 60.7734 17.9778L60.4001 17.865L60.4024 17.8672ZM54.4957 12.1857C53.9356 12.1857 53.412 12.8196 53.1877 14.6521L53.3379 14.7262C53.3379 14.7262 53.7111 13.8666 54.0858 13.8666C54.459 13.8666 54.796 14.3142 55.1319 14.876C53.8228 15.0265 53.1513 15.2872 52.7393 15.8108C52.3273 16.3342 52.2532 17.4918 52.2532 18.2405C52.2532 21.0813 54.1598 21.1941 54.0835 27.7723H54.3077C54.8687 20.3337 53.2607 21.0437 52.8134 17.3436C53.57 16.8024 54.4448 16.5751 55.3228 16.5751C55.6595 16.5751 55.9954 16.6082 56.3265 16.6701L56.8137 15.137C56.1402 13.0449 55.0194 12.1857 54.4957 12.1857ZM99.276 15.7367C98.3053 15.7367 97.4449 17.4564 97.4449 18.9507C97.4449 20.1468 98.3791 20.6331 99.4626 21.0052C98.7161 22.5018 97.2195 24.0702 95.2756 26.2392C92.9582 28.8193 92.1354 30.0521 91.5015 31.0604L91.8009 31.2846C95.1275 27.5093 95.7625 27.5469 98.5284 24.2204C99.276 23.3235 99.762 22.2388 100.099 21.193C100.883 21.4921 101.669 21.7904 102.154 22.4255H102.303C102.603 21.5662 102.827 20.8183 101.855 20.1459C101.368 19.8476 100.921 19.6596 100.51 19.5106C100.584 18.9872 100.622 18.5012 100.622 18.0539C100.622 16.9328 100.212 15.7367 99.276 15.7367ZM75.6907 0.636187C72.9627 0.636187 71.8781 3.32655 71.8781 5.53228C71.8781 6.99014 72.4755 7.70041 73.3724 9.00813C70.1584 10.5036 66.4583 12.4851 64.0648 14.3914L62.8312 19.0257C68.7367 19.7735 73.1847 20.8206 74.606 22.6531C70.1216 25.8295 60.4773 31.4358 52.4775 31.4358C45.8628 31.4358 43.0958 27.1007 43.0958 21.7177C43.0958 18.2405 43.9554 15.1393 45.8628 10.6537L45.3756 10.4295C43.4334 14.0159 41.4514 17.8296 41.4514 23.9585C41.4514 33.0043 47.8432 35.8086 51.9176 35.8086C60.0289 35.8086 66.4948 31.9584 72.363 27.5093C74.606 25.8272 76.7742 22.8386 76.7742 20.3325C76.7742 17.1923 71.1305 16.5573 66.9056 15.8849L66.9432 15.6983C69.1863 14.3515 71.8769 12.9697 74.9419 11.6612C75.1286 12.0344 75.3152 12.4076 75.5018 12.8572L75.7648 12.7809C75.7648 12.2951 75.7648 11.809 75.7271 11.3606C77.6397 10.5785 79.5855 9.88022 81.5589 9.26769L82.7176 5.94086V5.82832C80.3252 2.35333 77.7084 0.636187 75.6907 0.636187ZM90.1174 5.30722C87.9504 5.30722 85.894 8.6349 85.894 11.7737C85.894 17.3801 93.4434 13.0814 95.089 17.0809C95.089 18.1279 90.9394 21.9781 84.3996 26.3133C84.2495 24.4819 84.362 22.126 84.8481 19.2114C86.1558 18.5012 87.3894 17.8288 88.2863 17.3801L88.4741 15.847L88.3977 15.698C85.2954 17.2311 81.5953 19.249 79.8016 20.5189L79.689 22.2764H79.8756C80.9968 21.4921 82.5298 20.5192 84.0626 19.6599C83.5392 22.5007 83.315 24.9671 83.315 27.0224C81.7849 28.0453 80.2137 29.0056 78.6055 29.9008C67.8763 36.1798 60.177 38.9454 60.177 38.9454L60.44 39.8058C65.8971 37.8619 71.0926 36.2912 76.1383 35.0584C77.5209 34.459 80.3252 32.8154 83.6133 30.5344C84.4361 35.0952 86.9034 36.9263 89.8183 36.9263C94.3776 36.9263 103.349 30.8715 106.825 24.293L107.537 20.3679C106.339 15.5467 104.097 14.4997 102.714 12.2199L102.827 12.0697L104.322 12.5934L104.51 12.294L100.436 7.21012L100.099 7.35998L99.1646 11.5461C100.922 14.9105 104.809 18.1998 106.191 22.0864C101.295 28.1424 94.3047 32.9259 89.6701 32.9259C88.1373 32.9259 86.1555 32.1795 85.1099 29.4877C87.7638 27.5449 90.6787 25.264 93.3702 22.8352C95.2776 21.1155 96.3238 18.5741 96.3238 15.2097C96.3238 9.49191 92.3257 5.30495 90.1185 5.30495L90.1174 5.30722ZM80.0269 37.1912C79.279 38.3123 78.7192 39.4719 78.3072 40.4813C77.7836 39.9579 74.2328 37.7146 74.2328 37.7146C73.4485 38.9485 72.8864 40.2562 72.5131 41.3021C74.12 42.2751 75.7271 43.1719 76.4374 43.956H76.699C76.7024 43.9495 78.0081 41.4511 78.3061 40.742C79.7628 41.7152 80.9968 42.6121 81.6329 43.3962H81.8945C81.8945 43.3962 83.7259 40.4052 83.7259 40.1445C83.7259 39.8838 80.0258 37.1912 80.0258 37.1912H80.0269Z" fill="white"/>
</mask>
<g mask="url(#mask23_1301_515)">
<path d="M41.4514 0H107.52V43.9563H41.4514V0Z" fill="white"/>
</g>
</g>
</g>
</g>
</g>
<mask id="mask24_1301_515" style="mask-type:luminance" maskUnits="userSpaceOnUse" x="111" y="21" width="2" height="2">
<path d="M111.373 21.502H112.646V22.7732H111.373V21.502Z" fill="white"/>
</mask>
<g mask="url(#mask24_1301_515)">
<mask id="mask25_1301_515" style="mask-type:luminance" maskUnits="userSpaceOnUse" x="111" y="21" width="2" height="2">
<path d="M111.129 21.4124H112.826V22.8261H111.129V21.4124Z" fill="white"/>
</mask>
<g mask="url(#mask25_1301_515)">
<mask id="mask26_1301_515" style="mask-type:luminance" maskUnits="userSpaceOnUse" x="111" y="21" width="2" height="2">
<path d="M111.373 21.502H112.646V22.7735H111.373V21.502Z" fill="white"/>
</mask>
<g mask="url(#mask26_1301_515)">
<path d="M111.373 21.502H112.645V22.7735H111.373V21.502Z" fill="white"/>
</g>
</g>
</g>
<mask id="mask27_1301_515" style="mask-type:luminance" maskUnits="userSpaceOnUse" x="117" y="18" width="11" height="8">
<path d="M117.22 18.7419H127.381V25.2783H117.22L117.22 18.7419Z" fill="white"/>
</mask>
<g mask="url(#mask27_1301_515)">
<mask id="mask28_1301_515" style="mask-type:luminance" maskUnits="userSpaceOnUse" x="117" y="18" width="11" height="8">
<path d="M124.568 18.8157L121.725 22.8772L117.552 18.7419H117.22V25.1312H117.736V22.3235L120.691 25.2783L124.568 19.7757V25.1312H127.374V18.8157H124.568Z" fill="white"/>
</mask>
<g mask="url(#mask28_1301_515)">
<mask id="mask29_1301_515" style="mask-type:luminance" maskUnits="userSpaceOnUse" x="117" y="18" width="11" height="8">
<path d="M117.067 18.5854H127.529V25.3714H117.067V18.5854Z" fill="white"/>
</mask>
<g mask="url(#mask29_1301_515)">
<mask id="mask30_1301_515" style="mask-type:luminance" maskUnits="userSpaceOnUse" x="117" y="18" width="11" height="8">
<path d="M117.22 18.7419H127.381V25.2783H117.219L117.22 18.7419Z" fill="white"/>
</mask>
<g mask="url(#mask30_1301_515)">
<mask id="mask31_1301_515" style="mask-type:luminance" maskUnits="userSpaceOnUse" x="117" y="18" width="11" height="8">
<path d="M124.568 18.8157L121.725 22.8772L117.552 18.7419H117.219V25.1312H117.736V22.3235L120.691 25.2783L124.567 19.7754V25.131H127.374V18.8157H124.568Z" fill="white"/>
</mask>
<g mask="url(#mask31_1301_515)">
<path d="M117.22 18.7419H127.381V25.2783H117.219L117.22 18.7419Z" fill="white"/>
</g>
</g>
</g>
</g>
</g>
<mask id="mask32_1301_515" style="mask-type:luminance" maskUnits="userSpaceOnUse" x="131" y="21" width="3" height="2">
<path d="M131.949 21.502H133.22V22.7732H131.949V21.502Z" fill="white"/>
</mask>
<g mask="url(#mask32_1301_515)">
<mask id="mask33_1301_515" style="mask-type:luminance" maskUnits="userSpaceOnUse" x="131" y="21" width="3" height="2">
<path d="M131.77 21.4124H133.467V22.8261H131.77V21.4124Z" fill="white"/>
</mask>
<g mask="url(#mask33_1301_515)">
<mask id="mask34_1301_515" style="mask-type:luminance" maskUnits="userSpaceOnUse" x="131" y="21" width="3" height="2">
<path d="M131.949 21.502H133.22V22.7735H131.949V21.502Z" fill="white"/>
</mask>
<g mask="url(#mask34_1301_515)">
<path d="M131.949 21.502H133.22V22.7735H131.949V21.502Z" fill="white"/>
</g>
</g>
</g>
<mask id="mask35_1301_515" style="mask-type:luminance" maskUnits="userSpaceOnUse" x="137" y="18" width="4" height="8">
<path d="M137.795 18.8113H140.636V25.1293H137.796L137.795 18.8113Z" fill="white"/>
</mask>
<g mask="url(#mask35_1301_515)">
<mask id="mask36_1301_515" style="mask-type:luminance" maskUnits="userSpaceOnUse" x="137" y="18" width="4" height="8">
<path d="M137.708 18.5854H140.818V25.3714H137.708V18.5854Z" fill="white"/>
</mask>
<g mask="url(#mask36_1301_515)">
<mask id="mask37_1301_515" style="mask-type:luminance" maskUnits="userSpaceOnUse" x="137" y="18" width="4" height="8">
<path d="M137.795 18.8113H140.636V25.1293H137.796L137.795 18.8113Z" fill="white"/>
</mask>
<g mask="url(#mask37_1301_515)">
<path d="M137.795 18.8113H140.636V25.1251H137.796L137.795 18.8113Z" fill="white"/>
</g>
</g>
</g>
<mask id="mask38_1301_515" style="mask-type:luminance" maskUnits="userSpaceOnUse" x="145" y="21" width="2" height="2">
<path d="M145.211 21.502H146.481V22.7732H145.211V21.502Z" fill="white"/>
</mask>
<g mask="url(#mask38_1301_515)">
<mask id="mask39_1301_515" style="mask-type:luminance" maskUnits="userSpaceOnUse" x="145" y="21" width="2" height="2">
<path d="M145.059 21.4124H146.756V22.8261H145.059V21.4124Z" fill="white"/>
</mask>
<g mask="url(#mask39_1301_515)">
<mask id="mask40_1301_515" style="mask-type:luminance" maskUnits="userSpaceOnUse" x="145" y="21" width="2" height="2">
<path d="M145.211 21.502H146.481V22.7735H145.211V21.502Z" fill="white"/>
</mask>
<g mask="url(#mask40_1301_515)">
<path d="M145.211 21.502H146.482V22.7735H145.211V21.502Z" fill="white"/>
</g>
</g>
</g>
</svg>
